M48
;Layer_Color=9474304
;FILE_FORMAT=4:4
METRIC,LZ
;TYPE=PLATED
T01F00S00C0.2500
T02F00S00C0.2540
T03F00S00C0.2560
T04F00S00C0.5000
T06F00S00C1.0000
T07F00S00C1.3000
T08F00S00C2.0000
%
T01
X01229995Y00619125
X0132969Y0061722
X01329352Y00627858
X0133096Y006477
X0134747Y0064516
X0131318Y0064643
X01300864Y00688023
X0129921Y0069977
X01308122Y00767307
X01313479Y00762732
X0128143Y0078232
X0135636Y0078994
X0138811Y006731
X01380459Y00594324
X01356828Y00568071
X0132969Y0059436
X01177906Y00908431
X01140968Y00983742
X01140317Y00997536
X01140968Y01010666
X01138743Y01046988
X0114046Y0106172
X0113919Y0107442
Y0108712
X0110871Y0110744
X0117983Y0112522
X0100182Y0113813
X0100203Y0118872
X01002538Y01087628
X010033Y0103632
X0100203Y0098425
X0103251Y0097409
Y0096647
X0103378Y0094615
X0100076Y0093599
X0100203Y0088519
X0100711Y0083312
X0126111Y0087122
X0127
X0129667Y0091821
X013462Y0092964
X01338326Y00973074
X0129286Y0098679
X0130937Y0108712
X0131953Y0112522
X01361694Y01112012
X0137287Y0109982
X01402842Y0094234
X01401191Y00910971
X0140716Y0087884
X0137414Y0086487
X0136652
Y0085725
X013589
Y0086487
X0135636Y0079883
X0143383Y0083693
Y0084455
T02
X0122672Y0106057
Y0106946
Y0107962
Y0109105
X0124196
Y0107962
Y0106946
Y0106057
X012572
Y0106946
Y0107962
Y0109105
T03
X0120381Y0050619
X0123381
X0126381
X0129381
X0132381
X0135381
X0138381
X0141381
X0144381
X0147381
X0150381
X0153381
X0156381
X0157119Y0053619
X0151881
X0148881
X0147381Y0056619
X0148881Y0059619
X0151881
X0153381Y0062619
X0154881Y0065619
X0157119
X0156381Y0068619
X0153381
X0154881Y0071619
X0157119
X0151881
X0148881
X0145881
X0147381Y0074619
X0145881Y0077619
X0154881
X0157119
X0153381Y0074619
X0151881Y0065619
X0148881
X0145881
X0142881
X0144381Y0068619
X0147381
Y0062619
X0142881Y0059619
Y0053619
X0153381Y0056619
X0157119Y0059619
X0127881
X0124881
X0121881
X0123381Y0056619
X0126381
X0120381
X0121881Y0053619
X0124881Y0065619
X0127881
X0129381Y0062619
X0120381Y0068619
X0121881Y0077619
X0118881
X0115881
X0117381Y0074619
X0118881Y0071619
X0115881
X0117381Y0068619
X0114381
X0117381Y0062619
X0118881Y0059619
X0115881
X0112881
X0109881
X0106881
X0108381Y0062619
X0111381
Y0056619
X0114381
X0117381
X0115881Y0053619
X0117381Y0050619
X0114381
X0111381
X0108381
X0105381
X0102381
X0099381
X0096381
X0093381
X0097881Y0053619
X0100881
X0102381Y0056619
X0100881Y0059619
X0097881
X0094881
X0096381Y0062619
X0097881Y0065619
X0100881
X0103881
X0106881
X0105381Y0068619
X0102381
X0103881Y0071619
X0106881
X0108381Y0074619
X0106881Y0077619
X0103881
X0100881
X0102381Y0074619
X0100881Y0071619
X0097881
X0094881
X0096381Y0074619
X0094881Y0077619
X0096381Y0068619
X0093381
X0094881Y0065619
X0102381Y0062619
X0108381Y0056619
X0109881Y0053619
X0106881
X0096381Y0056619
X0094881Y0083619
X0096381Y0086619
X0099381
X0100881Y0089619
Y0095619
X0097881
X0094881
X0093381Y0098619
X0094881Y0101619
X0097881
X0100881
X0103881
X0102381Y0104619
X0099381
X0096381
X0093381
X0094881Y0107619
X0096381Y0110619
X0099381
X0102381
X0103881Y0107619
X0109881Y0101619
X0111381Y0092619
Y0086619
X0114381
X0108381
X0105381
X0093381
X0094881Y0089619
X0093381Y0092619
Y0110619
X0094881Y0113619
X0096381Y0116619
X0099381
X0093381
X0111381
X0114381Y0110619
X0118881Y0113619
Y0107619
X0115881Y0095619
X0118881Y0089619
X0120381Y0086619
X0123381
X0127881Y0089619
X0130881
X0133881
X0132381Y0092619
X0129381
X0138381
X0139881Y0083619
X0133881
X0135381Y0080619
X0144381Y0086619
X0147381
X0150381
X0153381
X0156381
X0157119Y0089619
X0154881
X0156381Y0092619
X0153381
X0150381
X0151881Y0095619
X0154881
X0157119
X0156381Y0098619
X0153381
X0154881Y0101619
X0157119
X0156381Y0104619
X0153381
X0154881Y0107619
X0157119
X0156381Y0110619
X0153381
X0150254Y0111254
X0147381Y0110619
X0148881Y0107619
X0147381Y0104619
X0148881Y0101619
X0151881
X0145881
X0148881Y0095619
X0154881Y0083619
X0157119
Y0113619
X0154881
X0156381Y0116619
X0153381
X0150381
X0147381
X0145881Y0113619
X0142367Y0110744
X0139881Y0107619
X0136881
X0132381Y0104619
X0130881Y0101619
X0124881
X0121881
X0123381Y0104619
X0126381
X0127881Y0107619
X0129381Y0110619
X0126381
X0123381
X0124881Y0113619
X0127881
X0130881
X0121881
Y0107619
X0126381Y0098619
X0139827Y0115062
X0141097Y011684
X0143383Y0117729
X014351Y0119634
X0141224
X0136881Y0119619
X0145881
X0154881
X0157119
X0112881
X0100881
X0094881
T04
X0129794Y0071374
X0132625Y0078449
X0137033Y0077216
X01186554Y009271
X01185954Y0094234
X01130808Y009271
X01030224Y00833882
X01216787Y00819277
T06
X0121158Y0094672
X0123698
X0126238
X0128778
T07
X0123317Y0054864
X0145034
X0150114
X0155194
X01560205Y00641295
X01440205
Y00763295
X01500205Y00783295
X01560205Y00763295
X01047689Y00764565
X00987689Y00784565
X00927689Y00764565
Y00642565
X0093853Y0054864
X0098933
X0104013
X0113157
X0118237
X01047689Y00642565
X00972148Y0083333
Y0088413
Y0093493
Y0098573
Y0103653
Y0108733
Y0113813
Y0118893
X015113Y0114554
Y0109474
Y0104394
Y0099314
Y0094234
Y0089154
Y0084074
Y0119634
T08
X0113968Y0117172
X0135968
M30
