G04*
G04 #@! TF.GenerationSoftware,Altium Limited,Altium Designer,25.8.1 (18)*
G04*
G04 Layer_Physical_Order=2*
G04 Layer_Color=16711680*
%FSLAX44Y44*%
%MOMM*%
G71*
G04*
G04 #@! TF.SameCoordinates,B0FFB41F-91FD-404A-B40E-8C3C6E9A6B17*
G04*
G04*
G04 #@! TF.FilePolarity,Positive*
G04*
G01*
G75*
%ADD72C,0.2540*%
%ADD74C,0.5080*%
%ADD76C,0.3810*%
%ADD77C,1.2700*%
%ADD79O,1.0000X2.2000*%
%ADD80O,1.0000X1.8000*%
%ADD81R,1.5080X1.5080*%
%ADD82C,1.5080*%
%ADD83C,3.0000*%
%ADD84C,2.0000*%
%ADD85C,2.2000*%
%ADD86C,1.9500*%
%ADD87C,0.5000*%
%ADD88C,1.0000*%
G36*
X1573446Y772561D02*
X1571578Y771826D01*
X1570906Y771771D01*
X1568531Y774146D01*
X1565439Y775931D01*
X1561990Y776855D01*
X1558420D01*
X1554971Y775931D01*
X1551879Y774146D01*
X1549354Y771621D01*
X1547569Y768529D01*
X1546645Y765080D01*
Y761510D01*
X1547569Y758061D01*
X1549354Y754969D01*
X1551879Y752445D01*
X1554971Y750659D01*
X1558420Y749735D01*
X1561990D01*
X1565439Y750659D01*
X1568531Y752445D01*
X1570906Y754820D01*
X1571578Y754764D01*
X1573446Y754030D01*
Y652590D01*
X1570906Y651538D01*
X1569646Y652799D01*
X1567220Y654420D01*
X1564525Y655536D01*
X1561664Y656105D01*
X1558746D01*
X1555885Y655536D01*
X1553190Y654420D01*
X1550764Y652799D01*
X1548701Y650736D01*
X1547081Y648310D01*
X1545964Y645615D01*
X1545395Y642754D01*
Y639837D01*
X1545964Y636975D01*
X1547081Y634280D01*
X1548701Y631854D01*
X1550764Y629791D01*
X1553190Y628171D01*
X1555885Y627054D01*
X1558746Y626485D01*
X1561664D01*
X1564525Y627054D01*
X1567220Y628171D01*
X1569646Y629791D01*
X1570906Y631052D01*
X1573446Y630000D01*
Y486494D01*
X910674D01*
X910674Y639172D01*
X913214Y639422D01*
X913448Y638245D01*
X914564Y635550D01*
X916185Y633124D01*
X918248Y631062D01*
X920673Y629441D01*
X923369Y628324D01*
X926230Y627755D01*
X929147D01*
X932008Y628324D01*
X934704Y629441D01*
X937129Y631062D01*
X939192Y633124D01*
X940813Y635550D01*
X941929Y638245D01*
X942498Y641107D01*
Y644024D01*
X941929Y646885D01*
X940813Y649580D01*
X939192Y652006D01*
X937129Y654069D01*
X934704Y655690D01*
X932008Y656806D01*
X929147Y657375D01*
X926230D01*
X923369Y656806D01*
X920673Y655690D01*
X918248Y654069D01*
X916185Y652006D01*
X914564Y649580D01*
X913448Y646885D01*
X913214Y645708D01*
X910674Y645959D01*
X910674Y1220386D01*
X1153076D01*
Y1188446D01*
X1150536Y1187089D01*
X1148590Y1188389D01*
X1145167Y1189807D01*
X1141533Y1190530D01*
X1137827D01*
X1134193Y1189807D01*
X1130770Y1188389D01*
X1127689Y1186331D01*
X1125069Y1183711D01*
X1123011Y1180630D01*
X1121593Y1177207D01*
X1120870Y1173573D01*
Y1169867D01*
X1121593Y1166233D01*
X1123011Y1162810D01*
X1125069Y1159729D01*
X1127689Y1157109D01*
X1130770Y1155051D01*
X1134193Y1153633D01*
X1137827Y1152910D01*
X1141533D01*
X1145167Y1153633D01*
X1148590Y1155051D01*
X1151671Y1157109D01*
X1154291Y1159729D01*
X1154990Y1160776D01*
X1157048Y1162456D01*
X1159510Y1161966D01*
X1337310D01*
X1339772Y1162456D01*
X1340270Y1162789D01*
X1341219Y1162796D01*
X1343499Y1162080D01*
X1345069Y1159729D01*
X1347689Y1157109D01*
X1350770Y1155051D01*
X1354193Y1153633D01*
X1357827Y1152910D01*
X1361533D01*
X1365167Y1153633D01*
X1368590Y1155051D01*
X1371671Y1157109D01*
X1374291Y1159729D01*
X1376349Y1162810D01*
X1377767Y1166233D01*
X1378490Y1169867D01*
Y1173573D01*
X1377767Y1177207D01*
X1376349Y1180630D01*
X1374291Y1183711D01*
X1371671Y1186331D01*
X1368590Y1188389D01*
X1365167Y1189807D01*
X1361533Y1190530D01*
X1357827D01*
X1354193Y1189807D01*
X1350770Y1188389D01*
X1347689Y1186331D01*
X1346284Y1184925D01*
X1343744Y1185977D01*
Y1220386D01*
X1573446D01*
X1573446Y772561D01*
D02*
G37*
%LPC*%
G36*
X1513118Y1210150D02*
X1509482D01*
X1505970Y1209209D01*
X1502820Y1207391D01*
X1500249Y1204820D01*
X1498431Y1201671D01*
X1497490Y1198158D01*
Y1194522D01*
X1498431Y1191010D01*
X1500249Y1187861D01*
X1502820Y1185289D01*
X1505970Y1183471D01*
X1509482Y1182530D01*
X1513118D01*
X1516631Y1183471D01*
X1519780Y1185289D01*
X1522351Y1187861D01*
X1524169Y1191010D01*
X1525110Y1194522D01*
Y1198158D01*
X1524169Y1201671D01*
X1522351Y1204820D01*
X1519780Y1207391D01*
X1516631Y1209209D01*
X1513118Y1210150D01*
D02*
G37*
G36*
X973967Y1202740D02*
X970330D01*
X966818Y1201799D01*
X963669Y1199981D01*
X961098Y1197410D01*
X959279Y1194261D01*
X958338Y1190748D01*
Y1187112D01*
X959279Y1183600D01*
X961098Y1180451D01*
X963669Y1177879D01*
X966818Y1176061D01*
X970330Y1175120D01*
X973967D01*
X977479Y1176061D01*
X980628Y1177879D01*
X983199Y1180451D01*
X985017Y1183600D01*
X985958Y1187112D01*
Y1190748D01*
X985017Y1194261D01*
X983199Y1197410D01*
X980628Y1199981D01*
X977479Y1201799D01*
X973967Y1202740D01*
D02*
G37*
G36*
X1513118Y1159350D02*
X1509482D01*
X1505970Y1158409D01*
X1502820Y1156591D01*
X1500249Y1154020D01*
X1498431Y1150871D01*
X1497490Y1147358D01*
Y1143722D01*
X1498431Y1140210D01*
X1500249Y1137061D01*
X1502820Y1134489D01*
X1505970Y1132671D01*
X1509482Y1131730D01*
X1513118D01*
X1516631Y1132671D01*
X1519780Y1134489D01*
X1522351Y1137061D01*
X1524169Y1140210D01*
X1525110Y1143722D01*
Y1147358D01*
X1524169Y1150871D01*
X1522351Y1154020D01*
X1519780Y1156591D01*
X1516631Y1158409D01*
X1513118Y1159350D01*
D02*
G37*
G36*
X973967Y1151940D02*
X970330D01*
X966818Y1150999D01*
X963669Y1149181D01*
X961098Y1146610D01*
X959279Y1143461D01*
X958338Y1139948D01*
Y1136312D01*
X959279Y1132800D01*
X961098Y1129651D01*
X963669Y1127079D01*
X966818Y1125261D01*
X970330Y1124320D01*
X973967D01*
X977479Y1125261D01*
X980628Y1127079D01*
X983199Y1129651D01*
X985017Y1132800D01*
X985958Y1136312D01*
Y1139948D01*
X985017Y1143461D01*
X983199Y1146610D01*
X980628Y1149181D01*
X977479Y1150999D01*
X973967Y1151940D01*
D02*
G37*
G36*
X1320785Y1131530D02*
X1318275D01*
X1315956Y1130569D01*
X1314181Y1128794D01*
X1313220Y1126475D01*
Y1123965D01*
X1314181Y1121646D01*
X1314350Y1121476D01*
Y1094382D01*
X1311810Y1092939D01*
X1310625Y1093430D01*
X1308115D01*
X1305796Y1092469D01*
X1304021Y1090694D01*
X1303060Y1088375D01*
Y1085865D01*
X1304021Y1083546D01*
X1304191Y1083376D01*
Y1066405D01*
X1206647Y968863D01*
X1205525Y967182D01*
X1205130Y965200D01*
Y958614D01*
X1205127Y958596D01*
X1205061Y958402D01*
X1204929Y958110D01*
X1204716Y957731D01*
X1204417Y957276D01*
X1204054Y956792D01*
X1202944Y955520D01*
X1202321Y954889D01*
X1202079Y954895D01*
X1199781Y955677D01*
Y1110448D01*
X1199387Y1112430D01*
X1198264Y1114110D01*
X1186140Y1126235D01*
Y1126475D01*
X1185179Y1128794D01*
X1183404Y1130569D01*
X1181085Y1131530D01*
X1178575D01*
X1176256Y1130569D01*
X1174481Y1128794D01*
X1173520Y1126475D01*
Y1123965D01*
X1174481Y1121646D01*
X1176256Y1119871D01*
X1178575Y1118910D01*
X1178815D01*
X1189423Y1108303D01*
Y953161D01*
X1187114Y951150D01*
X1184794D01*
X1182553Y950550D01*
X1180545Y949390D01*
X1179969Y948814D01*
X1102360D01*
X1099882Y948322D01*
X1098730Y947551D01*
X1097111Y949524D01*
X1124854Y977268D01*
X1140968D01*
X1141795Y977432D01*
X1142223D01*
X1142619Y977596D01*
X1143446Y977760D01*
X1144146Y978229D01*
X1144542Y978393D01*
X1144845Y978696D01*
X1145546Y979164D01*
X1146014Y979865D01*
X1146317Y980168D01*
X1146481Y980564D01*
X1146950Y981264D01*
X1147114Y982091D01*
X1147278Y982487D01*
Y982915D01*
X1147442Y983742D01*
X1147278Y984569D01*
Y984997D01*
X1147114Y985393D01*
X1146950Y986220D01*
X1146481Y986920D01*
X1146317Y987316D01*
X1146014Y987619D01*
X1145546Y988320D01*
X1144845Y988788D01*
X1144542Y989091D01*
X1144146Y989255D01*
X1143944Y989390D01*
X1143673Y990981D01*
X1143892Y992187D01*
X1144195Y992490D01*
X1144895Y992958D01*
X1145363Y993659D01*
X1145667Y993962D01*
X1145831Y994358D01*
X1146299Y995058D01*
X1146463Y995885D01*
X1146627Y996281D01*
Y996710D01*
X1146792Y997536D01*
X1146627Y998363D01*
Y998791D01*
X1146463Y999187D01*
X1146299Y1000014D01*
X1145831Y1000714D01*
X1145667Y1001110D01*
X1145363Y1001413D01*
X1144895Y1002114D01*
X1144359Y1002472D01*
X1144357Y1002477D01*
X1144175Y1003623D01*
X1144169Y1003923D01*
X1144540Y1005310D01*
X1144595Y1005369D01*
X1144845Y1005620D01*
X1145546Y1006088D01*
X1146014Y1006789D01*
X1146317Y1007092D01*
X1146481Y1007488D01*
X1146950Y1008188D01*
X1147114Y1009015D01*
X1147278Y1009411D01*
Y1009839D01*
X1147442Y1010666D01*
X1147278Y1011493D01*
Y1011921D01*
X1147114Y1012317D01*
X1146950Y1013144D01*
X1146481Y1013844D01*
X1146317Y1014240D01*
X1146014Y1014543D01*
X1145546Y1015244D01*
X1145292Y1015498D01*
X1144591Y1015966D01*
X1144542Y1016015D01*
X1144478Y1016042D01*
X1143192Y1016902D01*
X1140714Y1017394D01*
X1103630D01*
X1101152Y1016902D01*
X1099052Y1015498D01*
X1074278Y990724D01*
X1002030D01*
X1001203Y990560D01*
X1000775D01*
X1000379Y990396D01*
X999552Y990232D01*
X998852Y989763D01*
X998456Y989599D01*
X998153Y989296D01*
X997452Y988828D01*
X996984Y988127D01*
X996681Y987824D01*
X996517Y987428D01*
X996048Y986728D01*
X995884Y985901D01*
X995720Y985505D01*
Y985077D01*
X995556Y984250D01*
X995720Y983423D01*
Y982995D01*
X995884Y982599D01*
X996048Y981772D01*
X996517Y981072D01*
X996681Y980676D01*
X996984Y980373D01*
X997452Y979672D01*
X998153Y979204D01*
X998456Y978901D01*
X998852Y978737D01*
X999552Y978268D01*
X1000379Y978104D01*
X1000775Y977940D01*
X1001203D01*
X1002030Y977776D01*
X1076960D01*
X1079438Y978268D01*
X1081538Y979672D01*
X1106312Y1004446D01*
X1108715D01*
X1109488Y1002783D01*
X1109589Y1001906D01*
X1050402Y942718D01*
X1001014D01*
X998536Y942226D01*
X997250Y941366D01*
X997186Y941339D01*
X997137Y941290D01*
X996436Y940822D01*
X996182Y940568D01*
X995714Y939867D01*
X995411Y939564D01*
X995247Y939168D01*
X994778Y938468D01*
X994614Y937641D01*
X994450Y937245D01*
Y936817D01*
X994286Y935990D01*
X994450Y935163D01*
Y934735D01*
X994614Y934339D01*
X994778Y933512D01*
X995247Y932812D01*
X995411Y932416D01*
X995714Y932113D01*
X996182Y931412D01*
X996883Y930944D01*
X997186Y930641D01*
X997582Y930477D01*
X998282Y930008D01*
X999109Y929844D01*
X999505Y929680D01*
X999933D01*
X1000760Y929516D01*
X1001587Y929680D01*
X1002015D01*
X1002231Y929770D01*
X1053084D01*
X1055562Y930262D01*
X1056714Y931033D01*
X1058334Y929060D01*
X1020132Y890858D01*
X1004976D01*
X1004508Y891172D01*
X1003681Y891336D01*
X1003285Y891500D01*
X1002857D01*
X1002030Y891664D01*
X1001203Y891500D01*
X1000775D01*
X1000379Y891336D01*
X999552Y891172D01*
X998852Y890703D01*
X998456Y890539D01*
X998153Y890236D01*
X997452Y889768D01*
X996984Y889067D01*
X996681Y888764D01*
X996517Y888368D01*
X996048Y887668D01*
X995884Y886841D01*
X995720Y886445D01*
Y886017D01*
X995556Y885190D01*
X995720Y884363D01*
Y883935D01*
X995884Y883539D01*
X996048Y882712D01*
X996517Y882012D01*
X996681Y881616D01*
X996984Y881313D01*
X997452Y880612D01*
X998258Y879806D01*
X1000358Y878402D01*
X1002836Y877910D01*
X1022814D01*
X1025292Y878402D01*
X1026444Y879173D01*
X1028064Y877200D01*
X1002532Y851668D01*
X1001128Y849568D01*
X1000636Y847090D01*
Y833120D01*
X1000800Y832293D01*
Y831865D01*
X1000964Y831469D01*
X1001128Y830642D01*
X1001597Y829942D01*
X1001761Y829546D01*
X1002064Y829243D01*
X1002532Y828542D01*
X1003233Y828074D01*
X1003536Y827771D01*
X1003932Y827607D01*
X1004632Y827138D01*
X1005459Y826974D01*
X1005855Y826810D01*
X1006283D01*
X1007110Y826646D01*
X1007937Y826810D01*
X1008365D01*
X1008761Y826974D01*
X1009588Y827138D01*
X1010288Y827607D01*
X1010684Y827771D01*
X1010987Y828074D01*
X1011688Y828542D01*
X1012156Y829243D01*
X1012459Y829546D01*
X1012623Y829942D01*
X1013092Y830642D01*
X1013256Y831469D01*
X1013420Y831865D01*
Y832293D01*
X1013584Y833120D01*
Y844408D01*
X1105042Y935866D01*
X1123522D01*
X1124574Y933326D01*
X1123758Y932510D01*
X1122598Y930500D01*
X1121998Y928260D01*
Y925940D01*
X1122598Y923699D01*
X1123758Y921691D01*
X1125398Y920050D01*
X1127408Y918890D01*
X1129648Y918290D01*
X1131968D01*
X1134209Y918890D01*
X1136217Y920050D01*
X1136704Y920536D01*
X1136741Y920552D01*
X1136756Y920556D01*
X1136895Y920587D01*
X1137059Y920613D01*
X1137221Y920626D01*
X1180202D01*
X1180258Y920620D01*
X1180468Y920587D01*
X1180606Y920556D01*
X1180620Y920552D01*
X1180658Y920536D01*
X1181144Y920050D01*
X1183154Y918890D01*
X1185394Y918290D01*
X1187714D01*
X1188538Y918511D01*
X1189817Y917716D01*
X1190863Y916151D01*
X1190765Y915674D01*
X1189772Y913611D01*
X1181650D01*
X1181480Y913780D01*
X1179161Y914741D01*
X1176651D01*
X1174332Y913780D01*
X1172557Y912005D01*
X1171596Y909686D01*
Y907176D01*
X1172557Y904857D01*
X1174332Y903082D01*
X1176651Y902121D01*
X1179161D01*
X1181480Y903082D01*
X1181650Y903251D01*
X1397985D01*
X1399967Y903646D01*
X1401047Y904367D01*
X1401094Y904385D01*
X1401141Y904430D01*
X1401487Y904661D01*
X1402446D01*
X1404765Y905622D01*
X1406540Y907397D01*
X1407501Y909716D01*
Y912226D01*
X1406540Y914545D01*
X1404765Y916320D01*
X1402446Y917281D01*
X1399936D01*
X1397617Y916320D01*
X1395842Y914545D01*
X1395454Y913611D01*
X1304313D01*
X1302647Y916151D01*
X1302980Y916955D01*
Y919465D01*
X1302019Y921784D01*
X1300244Y923559D01*
X1297925Y924520D01*
X1295415D01*
X1293096Y923559D01*
X1292926Y923390D01*
X1199781D01*
Y939376D01*
X1202321Y940056D01*
X1202498Y939751D01*
X1204611Y937638D01*
X1207199Y936143D01*
X1210086Y935370D01*
X1213074D01*
X1215961Y936143D01*
X1218549Y937638D01*
X1220662Y939751D01*
X1222157Y942339D01*
X1222930Y945226D01*
Y948214D01*
X1222157Y951101D01*
X1220662Y953689D01*
X1218549Y955802D01*
X1216360Y957066D01*
X1216203Y957276D01*
X1215904Y957731D01*
X1215691Y958110D01*
X1215559Y958402D01*
X1215493Y958596D01*
X1215490Y958614D01*
Y963055D01*
X1227990Y975555D01*
X1230530Y974503D01*
Y958614D01*
X1230527Y958596D01*
X1230461Y958402D01*
X1230329Y958110D01*
X1230116Y957731D01*
X1229817Y957276D01*
X1229454Y956792D01*
X1228344Y955520D01*
X1227665Y954831D01*
X1227256Y954210D01*
X1226843Y953591D01*
X1226840Y953577D01*
X1226832Y953565D01*
X1226693Y952834D01*
X1226547Y952105D01*
X1226550Y952090D01*
X1226547Y952076D01*
X1226658Y951542D01*
X1226404Y951101D01*
X1225630Y948214D01*
Y945226D01*
X1226404Y942339D01*
X1227898Y939751D01*
X1230011Y937638D01*
X1232599Y936143D01*
X1235486Y935370D01*
X1238474D01*
X1241361Y936143D01*
X1243949Y937638D01*
X1246062Y939751D01*
X1247557Y942339D01*
X1248330Y945226D01*
Y948214D01*
X1247557Y951101D01*
X1246062Y953689D01*
X1243949Y955802D01*
X1241760Y957066D01*
X1241603Y957276D01*
X1241304Y957731D01*
X1241091Y958110D01*
X1240959Y958402D01*
X1240893Y958596D01*
X1240890Y958614D01*
Y975755D01*
X1323192Y1058057D01*
X1324315Y1059738D01*
X1324709Y1061720D01*
Y1121476D01*
X1324879Y1121646D01*
X1325840Y1123965D01*
Y1126475D01*
X1324879Y1128794D01*
X1323104Y1130569D01*
X1320785Y1131530D01*
D02*
G37*
G36*
X1513118Y1108550D02*
X1509482D01*
X1505970Y1107609D01*
X1502820Y1105791D01*
X1500249Y1103220D01*
X1498431Y1100071D01*
X1497490Y1096558D01*
Y1092922D01*
X1498431Y1089410D01*
X1500249Y1086261D01*
X1502820Y1083689D01*
X1505970Y1081871D01*
X1509482Y1080930D01*
X1513118D01*
X1516631Y1081871D01*
X1519780Y1083689D01*
X1522351Y1086261D01*
X1524169Y1089410D01*
X1525110Y1092922D01*
Y1096558D01*
X1524169Y1100071D01*
X1522351Y1103220D01*
X1519780Y1105791D01*
X1516631Y1107609D01*
X1513118Y1108550D01*
D02*
G37*
G36*
X1002030Y1195194D02*
X1001203Y1195030D01*
X1000775D01*
X1000379Y1194866D01*
X999552Y1194702D01*
X998852Y1194233D01*
X998456Y1194069D01*
X998153Y1193766D01*
X997452Y1193298D01*
X996984Y1192597D01*
X996681Y1192294D01*
X996517Y1191898D01*
X996048Y1191198D01*
X995884Y1190371D01*
X995720Y1189975D01*
Y1189547D01*
X995556Y1188720D01*
Y1179830D01*
X996048Y1177352D01*
X997452Y1175252D01*
X1089269Y1083434D01*
X1088217Y1080894D01*
X1082182D01*
X1020578Y1142498D01*
X1018478Y1143902D01*
X1016000Y1144394D01*
X1003185D01*
X1003075Y1144440D01*
X1000565D01*
X998246Y1143480D01*
X996470Y1141704D01*
X995510Y1139385D01*
Y1136875D01*
X995998Y1135697D01*
X996048Y1135442D01*
X996193Y1135226D01*
X996470Y1134556D01*
X996984Y1134043D01*
X997452Y1133342D01*
X998153Y1132874D01*
X998246Y1132781D01*
X998367Y1132730D01*
X999552Y1131938D01*
X1002030Y1131446D01*
X1013318D01*
X1074922Y1069842D01*
X1077022Y1068438D01*
X1079500Y1067946D01*
X1133759D01*
X1134811Y1065406D01*
X1131758Y1062352D01*
X1046114D01*
X1016260Y1092206D01*
X1014160Y1093610D01*
X1011682Y1094102D01*
X1002538D01*
X1001711Y1093938D01*
X1001283D01*
X1000887Y1093774D01*
X1000060Y1093610D01*
X999360Y1093141D01*
X998964Y1092977D01*
X998661Y1092674D01*
X997960Y1092206D01*
X997492Y1091505D01*
X997189Y1091202D01*
X997025Y1090806D01*
X996556Y1090106D01*
X996392Y1089279D01*
X996228Y1088883D01*
Y1088455D01*
X996064Y1087628D01*
X996228Y1086801D01*
Y1086373D01*
X996392Y1085977D01*
X996556Y1085150D01*
X997025Y1084450D01*
X997189Y1084054D01*
X997492Y1083751D01*
X997960Y1083050D01*
X998661Y1082582D01*
X998964Y1082279D01*
X999360Y1082115D01*
X1000060Y1081646D01*
X1000887Y1081482D01*
X1001283Y1081318D01*
X1001711D01*
X1002538Y1081154D01*
X1009000D01*
X1038854Y1051300D01*
X1040954Y1049896D01*
X1043432Y1049404D01*
X1128684D01*
X1129656Y1047057D01*
X1125394Y1042794D01*
X1003300D01*
X1002473Y1042630D01*
X1002045D01*
X1001649Y1042466D01*
X1000822Y1042302D01*
X1000122Y1041833D01*
X999726Y1041669D01*
X999423Y1041366D01*
X998722Y1040898D01*
X998254Y1040197D01*
X997951Y1039894D01*
X997787Y1039498D01*
X997318Y1038798D01*
X997154Y1037971D01*
X996990Y1037575D01*
Y1037147D01*
X996826Y1036320D01*
X996990Y1035493D01*
Y1035065D01*
X997154Y1034669D01*
X997318Y1033842D01*
X997787Y1033142D01*
X997951Y1032746D01*
X998254Y1032443D01*
X998722Y1031742D01*
X999423Y1031274D01*
X999726Y1030971D01*
X1000122Y1030807D01*
X1000822Y1030338D01*
X1001649Y1030174D01*
X1002045Y1030010D01*
X1002473D01*
X1003300Y1029846D01*
X1128075D01*
X1130553Y1030338D01*
X1132653Y1031742D01*
X1143321Y1042410D01*
X1143790Y1043111D01*
X1144093Y1043414D01*
X1144257Y1043810D01*
X1144725Y1044510D01*
X1144889Y1045337D01*
X1145053Y1045733D01*
Y1046161D01*
X1145218Y1046988D01*
X1145053Y1047815D01*
Y1048243D01*
X1144889Y1048639D01*
X1144725Y1049466D01*
X1144257Y1050166D01*
X1144093Y1050562D01*
X1143790Y1050865D01*
X1143321Y1051566D01*
X1143055Y1051744D01*
X1142456Y1053735D01*
X1142516Y1054344D01*
X1142733Y1055014D01*
X1144502Y1056784D01*
X1145038Y1057142D01*
X1145506Y1057843D01*
X1145809Y1058146D01*
X1145973Y1058542D01*
X1146442Y1059242D01*
X1146606Y1060069D01*
X1146770Y1060465D01*
Y1060893D01*
X1146934Y1061720D01*
X1146770Y1062547D01*
Y1062975D01*
X1146606Y1063371D01*
X1146442Y1064198D01*
X1145973Y1064898D01*
X1145809Y1065294D01*
X1145506Y1065597D01*
X1145038Y1066298D01*
X1144337Y1066766D01*
X1144058Y1067046D01*
X1144018Y1067108D01*
X1143737Y1067778D01*
X1143680Y1068064D01*
X1143765Y1069774D01*
X1143827Y1069930D01*
X1144236Y1070543D01*
X1144539Y1070846D01*
X1144703Y1071242D01*
X1145172Y1071942D01*
X1145336Y1072769D01*
X1145500Y1073165D01*
Y1073593D01*
X1145664Y1074420D01*
X1145500Y1075247D01*
Y1075675D01*
X1145336Y1076071D01*
X1145172Y1076898D01*
X1144703Y1077598D01*
X1144539Y1077994D01*
X1144236Y1078297D01*
X1143768Y1078998D01*
X1143402Y1079243D01*
X1143329Y1079411D01*
X1143025Y1080682D01*
X1143015Y1080770D01*
X1143025Y1080858D01*
X1143329Y1082129D01*
X1143402Y1082297D01*
X1143768Y1082542D01*
X1144236Y1083243D01*
X1144539Y1083546D01*
X1144703Y1083942D01*
X1145172Y1084642D01*
X1145336Y1085469D01*
X1145500Y1085865D01*
Y1086293D01*
X1145664Y1087120D01*
X1145500Y1087947D01*
Y1088375D01*
X1145336Y1088771D01*
X1145172Y1089598D01*
X1144703Y1090298D01*
X1144539Y1090694D01*
X1144236Y1090997D01*
X1143768Y1091698D01*
X1143067Y1092166D01*
X1142764Y1092469D01*
X1142368Y1092633D01*
X1141668Y1093102D01*
X1140841Y1093266D01*
X1140445Y1093430D01*
X1140017D01*
X1139190Y1093594D01*
X1097422D01*
X1008504Y1182512D01*
Y1188720D01*
X1008340Y1189547D01*
Y1189975D01*
X1008176Y1190371D01*
X1008012Y1191198D01*
X1007543Y1191898D01*
X1007379Y1192294D01*
X1007076Y1192597D01*
X1006608Y1193298D01*
X1005907Y1193766D01*
X1005604Y1194069D01*
X1005208Y1194233D01*
X1004508Y1194702D01*
X1003681Y1194866D01*
X1003285Y1195030D01*
X1002857D01*
X1002030Y1195194D01*
D02*
G37*
G36*
X973967Y1101140D02*
X970330D01*
X966818Y1100199D01*
X963669Y1098381D01*
X961098Y1095810D01*
X959279Y1092661D01*
X958338Y1089148D01*
Y1085512D01*
X959279Y1082000D01*
X961098Y1078850D01*
X963669Y1076279D01*
X966818Y1074461D01*
X970330Y1073520D01*
X973967D01*
X977479Y1074461D01*
X980628Y1076279D01*
X983199Y1078850D01*
X985017Y1082000D01*
X985958Y1085512D01*
Y1089148D01*
X985017Y1092661D01*
X983199Y1095810D01*
X980628Y1098381D01*
X977479Y1100199D01*
X973967Y1101140D01*
D02*
G37*
G36*
X1513118Y1057750D02*
X1509482D01*
X1505970Y1056809D01*
X1502820Y1054991D01*
X1500249Y1052420D01*
X1498431Y1049271D01*
X1497490Y1045758D01*
Y1042122D01*
X1498431Y1038610D01*
X1500249Y1035461D01*
X1502820Y1032889D01*
X1505970Y1031071D01*
X1509482Y1030130D01*
X1513118D01*
X1516631Y1031071D01*
X1519780Y1032889D01*
X1522351Y1035461D01*
X1524169Y1038610D01*
X1525110Y1042122D01*
Y1045758D01*
X1524169Y1049271D01*
X1522351Y1052420D01*
X1519780Y1054991D01*
X1516631Y1056809D01*
X1513118Y1057750D01*
D02*
G37*
G36*
X973967Y1050340D02*
X970330D01*
X966818Y1049399D01*
X963669Y1047581D01*
X961098Y1045010D01*
X959279Y1041861D01*
X958338Y1038348D01*
Y1034712D01*
X959279Y1031200D01*
X961098Y1028051D01*
X963669Y1025479D01*
X966818Y1023661D01*
X970330Y1022720D01*
X973967D01*
X977479Y1023661D01*
X980628Y1025479D01*
X983199Y1028051D01*
X985017Y1031200D01*
X985958Y1034712D01*
Y1038348D01*
X985017Y1041861D01*
X983199Y1045010D01*
X980628Y1047581D01*
X977479Y1049399D01*
X973967Y1050340D01*
D02*
G37*
G36*
X1362949Y1118322D02*
X1360439D01*
X1358120Y1117361D01*
X1356345Y1115586D01*
X1355384Y1113267D01*
Y1110757D01*
X1356345Y1108438D01*
X1358120Y1106663D01*
X1360439Y1105702D01*
X1362949D01*
X1365268Y1106663D01*
X1367013Y1106250D01*
X1367876Y1103750D01*
X1367521Y1103394D01*
X1366560Y1101075D01*
Y1098565D01*
X1367521Y1096246D01*
X1369296Y1094471D01*
X1371615Y1093510D01*
X1374125D01*
X1376444Y1094471D01*
X1376614Y1094641D01*
X1399935D01*
X1410871Y1083705D01*
Y983664D01*
X1408331Y982894D01*
X1407420Y984256D01*
X1400308Y991368D01*
X1398208Y992772D01*
X1395730Y993264D01*
X1292860D01*
X1292033Y993100D01*
X1291605D01*
X1291209Y992936D01*
X1290382Y992772D01*
X1289682Y992303D01*
X1289286Y992139D01*
X1288983Y991836D01*
X1288282Y991368D01*
X1287814Y990667D01*
X1287511Y990364D01*
X1287347Y989968D01*
X1286878Y989268D01*
X1286714Y988441D01*
X1286550Y988045D01*
Y987617D01*
X1286386Y986790D01*
X1286550Y985963D01*
Y985535D01*
X1286714Y985139D01*
X1286878Y984312D01*
X1287347Y983612D01*
X1287511Y983216D01*
X1287814Y982913D01*
X1288282Y982212D01*
X1288983Y981744D01*
X1289286Y981441D01*
X1289682Y981277D01*
X1290382Y980808D01*
X1291209Y980644D01*
X1291605Y980480D01*
X1292033D01*
X1292860Y980316D01*
X1333188D01*
X1334104Y977776D01*
X1332977Y976648D01*
X1332016Y974329D01*
Y971819D01*
X1332977Y969500D01*
X1333147Y969330D01*
Y937514D01*
X1333541Y935532D01*
X1334664Y933851D01*
X1339890Y928625D01*
Y928385D01*
X1340851Y926066D01*
X1342626Y924291D01*
X1344945Y923330D01*
X1347455D01*
X1349774Y924291D01*
X1351549Y926066D01*
X1352510Y928385D01*
Y930895D01*
X1351549Y933214D01*
X1349774Y934989D01*
X1347455Y935950D01*
X1347215D01*
X1343506Y939659D01*
Y969330D01*
X1343675Y969500D01*
X1344636Y971819D01*
Y974329D01*
X1343675Y976648D01*
X1342548Y977776D01*
X1343464Y980316D01*
X1393048D01*
X1396368Y976996D01*
Y942340D01*
X1396532Y941513D01*
Y941085D01*
X1396696Y940689D01*
X1396860Y939862D01*
X1397329Y939162D01*
X1397493Y938766D01*
X1397796Y938463D01*
X1398264Y937762D01*
X1398965Y937294D01*
X1399268Y936991D01*
X1399664Y936827D01*
X1400364Y936358D01*
X1401191Y936194D01*
X1401587Y936030D01*
X1402015D01*
X1402842Y935866D01*
X1403669Y936030D01*
X1404097D01*
X1404493Y936194D01*
X1405320Y936358D01*
X1406020Y936827D01*
X1406416Y936991D01*
X1406719Y937294D01*
X1407420Y937762D01*
X1407888Y938463D01*
X1408191Y938766D01*
X1408355Y939162D01*
X1410871Y938354D01*
Y676515D01*
X1397395Y663039D01*
X1318260D01*
X1316278Y662645D01*
X1314597Y661523D01*
X1309518Y656442D01*
X1308395Y654762D01*
X1308000Y652780D01*
Y650174D01*
X1307831Y650004D01*
X1306870Y647685D01*
Y645175D01*
X1307831Y642856D01*
X1309606Y641081D01*
X1311925Y640120D01*
X1314435D01*
X1316754Y641081D01*
X1318529Y642856D01*
X1319490Y645175D01*
Y647685D01*
X1318529Y650004D01*
X1318360Y650174D01*
Y650635D01*
X1320405Y652681D01*
X1323698D01*
X1325141Y650141D01*
X1324650Y648955D01*
Y646445D01*
X1325611Y644126D01*
X1327386Y642351D01*
X1329705Y641390D01*
X1332215D01*
X1334534Y642351D01*
X1336309Y644126D01*
X1337270Y646445D01*
Y646685D01*
X1338185Y647600D01*
X1405890D01*
X1407872Y647995D01*
X1409552Y649118D01*
X1424792Y664358D01*
X1425915Y666038D01*
X1426310Y668020D01*
Y755163D01*
X1428849Y755844D01*
X1429354Y754969D01*
X1431879Y752445D01*
X1434971Y750659D01*
X1438420Y749735D01*
X1441990D01*
X1445439Y750659D01*
X1448531Y752445D01*
X1451056Y754969D01*
X1452841Y758061D01*
X1453765Y761510D01*
Y765080D01*
X1452841Y768529D01*
X1451056Y771621D01*
X1448531Y774146D01*
X1445439Y775931D01*
X1441990Y776855D01*
X1438420D01*
X1434971Y775931D01*
X1431879Y774146D01*
X1429354Y771621D01*
X1428849Y770747D01*
X1426310Y771428D01*
Y1093470D01*
X1425915Y1095452D01*
X1424792Y1097132D01*
X1406250Y1115675D01*
X1404570Y1116797D01*
X1402588Y1117191D01*
X1365438D01*
X1365268Y1117361D01*
X1362949Y1118322D01*
D02*
G37*
G36*
X1513118Y1006950D02*
X1509482D01*
X1505970Y1006009D01*
X1502820Y1004191D01*
X1500249Y1001620D01*
X1498431Y998471D01*
X1497490Y994958D01*
Y991322D01*
X1498431Y987810D01*
X1500249Y984660D01*
X1502820Y982089D01*
X1505970Y980271D01*
X1509482Y979330D01*
X1513118D01*
X1516631Y980271D01*
X1519780Y982089D01*
X1522351Y984660D01*
X1524169Y987810D01*
X1525110Y991322D01*
Y994958D01*
X1524169Y998471D01*
X1522351Y1001620D01*
X1519780Y1004191D01*
X1516631Y1006009D01*
X1513118Y1006950D01*
D02*
G37*
G36*
X973967Y999540D02*
X970330D01*
X966818Y998599D01*
X963669Y996781D01*
X961098Y994210D01*
X959279Y991060D01*
X958338Y987548D01*
Y983912D01*
X959279Y980400D01*
X961098Y977251D01*
X963669Y974679D01*
X966818Y972861D01*
X970330Y971920D01*
X973967D01*
X977479Y972861D01*
X980628Y974679D01*
X983199Y977251D01*
X985017Y980400D01*
X985958Y983912D01*
Y987548D01*
X985017Y991060D01*
X983199Y994210D01*
X980628Y996781D01*
X977479Y998599D01*
X973967Y999540D01*
D02*
G37*
G36*
X1263874Y958070D02*
X1260886D01*
X1257999Y957297D01*
X1255411Y955802D01*
X1253298Y953689D01*
X1251804Y951101D01*
X1251030Y948214D01*
Y945226D01*
X1251804Y942339D01*
X1253298Y939751D01*
X1255411Y937638D01*
X1257999Y936143D01*
X1260886Y935370D01*
X1263874D01*
X1266761Y936143D01*
X1269349Y937638D01*
X1271462Y939751D01*
X1272956Y942339D01*
X1273730Y945226D01*
Y948214D01*
X1272956Y951101D01*
X1271462Y953689D01*
X1269349Y955802D01*
X1266761Y957297D01*
X1263874Y958070D01*
D02*
G37*
G36*
X1513118Y956150D02*
X1509482D01*
X1505970Y955209D01*
X1502820Y953391D01*
X1500249Y950820D01*
X1498431Y947671D01*
X1497490Y944158D01*
Y940522D01*
X1498431Y937010D01*
X1500249Y933860D01*
X1502820Y931289D01*
X1505970Y929471D01*
X1509482Y928530D01*
X1513118D01*
X1516631Y929471D01*
X1519780Y931289D01*
X1522351Y933860D01*
X1524169Y937010D01*
X1525110Y940522D01*
Y944158D01*
X1524169Y947671D01*
X1522351Y950820D01*
X1519780Y953391D01*
X1516631Y955209D01*
X1513118Y956150D01*
D02*
G37*
G36*
X973967Y948740D02*
X970330D01*
X966818Y947799D01*
X963669Y945981D01*
X961098Y943410D01*
X959279Y940260D01*
X958338Y936748D01*
Y933112D01*
X959279Y929600D01*
X961098Y926450D01*
X963669Y923879D01*
X966818Y922061D01*
X970330Y921120D01*
X973967D01*
X977479Y922061D01*
X980628Y923879D01*
X983199Y926450D01*
X985017Y929600D01*
X985958Y933112D01*
Y936748D01*
X985017Y940260D01*
X983199Y943410D01*
X980628Y945981D01*
X977479Y947799D01*
X973967Y948740D01*
D02*
G37*
G36*
X1513118Y905350D02*
X1509482D01*
X1505970Y904409D01*
X1502820Y902591D01*
X1500249Y900020D01*
X1498431Y896870D01*
X1497490Y893358D01*
Y889722D01*
X1498431Y886209D01*
X1500249Y883060D01*
X1502820Y880489D01*
X1505970Y878671D01*
X1509482Y877730D01*
X1513118D01*
X1516631Y878671D01*
X1519780Y880489D01*
X1522351Y883060D01*
X1524169Y886209D01*
X1525110Y889722D01*
Y893358D01*
X1524169Y896870D01*
X1522351Y900020D01*
X1519780Y902591D01*
X1516631Y904409D01*
X1513118Y905350D01*
D02*
G37*
G36*
X973967Y897940D02*
X970330D01*
X966818Y896999D01*
X963669Y895181D01*
X961098Y892609D01*
X959279Y889461D01*
X958338Y885948D01*
Y882312D01*
X959279Y878800D01*
X961098Y875650D01*
X963669Y873079D01*
X966818Y871261D01*
X970330Y870320D01*
X973967D01*
X977479Y871261D01*
X980628Y873079D01*
X983199Y875650D01*
X985017Y878800D01*
X985958Y882312D01*
Y885948D01*
X985017Y889461D01*
X983199Y892609D01*
X980628Y895181D01*
X977479Y896999D01*
X973967Y897940D01*
D02*
G37*
G36*
X1513118Y854550D02*
X1509482D01*
X1505970Y853609D01*
X1502820Y851791D01*
X1500249Y849220D01*
X1498431Y846070D01*
X1497490Y842558D01*
Y838922D01*
X1498431Y835409D01*
X1500249Y832260D01*
X1502820Y829689D01*
X1505970Y827871D01*
X1509482Y826930D01*
X1513118D01*
X1516631Y827871D01*
X1519780Y829689D01*
X1522351Y832260D01*
X1524169Y835409D01*
X1525110Y838922D01*
Y842558D01*
X1524169Y846070D01*
X1522351Y849220D01*
X1519780Y851791D01*
X1516631Y853609D01*
X1513118Y854550D01*
D02*
G37*
G36*
X973967Y847140D02*
X970330D01*
X966818Y846199D01*
X963669Y844381D01*
X961098Y841809D01*
X959279Y838660D01*
X958338Y835148D01*
Y831512D01*
X959279Y827999D01*
X961098Y824850D01*
X963669Y822279D01*
X966818Y820461D01*
X970330Y819520D01*
X973967D01*
X977479Y820461D01*
X980628Y822279D01*
X983199Y824850D01*
X985017Y827999D01*
X985958Y831512D01*
Y835148D01*
X985017Y838660D01*
X983199Y841809D01*
X980628Y844381D01*
X977479Y846199D01*
X973967Y847140D01*
D02*
G37*
G36*
X1031384Y842692D02*
X1029064D01*
X1026824Y842092D01*
X1024815Y840932D01*
X1023174Y839292D01*
X1022014Y837282D01*
X1021414Y835042D01*
Y832722D01*
X1022014Y830481D01*
X1023174Y828473D01*
X1024815Y826832D01*
X1026824Y825672D01*
X1029064Y825072D01*
X1031384D01*
X1033624Y825672D01*
X1035633Y826832D01*
X1036120Y827318D01*
X1036158Y827334D01*
X1036172Y827338D01*
X1036311Y827369D01*
X1036475Y827395D01*
X1036637Y827408D01*
X1208866D01*
X1209918Y824868D01*
X1209737Y824687D01*
X1208577Y822678D01*
X1207977Y820437D01*
Y818117D01*
X1208577Y815876D01*
X1209737Y813867D01*
X1211246Y812358D01*
X1211254Y812281D01*
Y809192D01*
X1211747Y806714D01*
X1213150Y804613D01*
X1217162Y800602D01*
X1219262Y799198D01*
X1221740Y798706D01*
X1280018D01*
X1291466Y787258D01*
Y720092D01*
X1291460Y720036D01*
X1291427Y719827D01*
X1291396Y719688D01*
X1291392Y719673D01*
X1291376Y719636D01*
X1290890Y719149D01*
X1289730Y717141D01*
X1289130Y714900D01*
Y712580D01*
X1289730Y710340D01*
X1290890Y708331D01*
X1292531Y706690D01*
X1294539Y705530D01*
X1296780Y704930D01*
X1299100D01*
X1301340Y705530D01*
X1303349Y706690D01*
X1304990Y708331D01*
X1306150Y710340D01*
X1306750Y712580D01*
Y713268D01*
X1306766Y713306D01*
X1306773Y713319D01*
X1306849Y713438D01*
X1306947Y713573D01*
X1307053Y713697D01*
X1359042Y765686D01*
X1363978D01*
X1364034Y765680D01*
X1364243Y765647D01*
X1364382Y765617D01*
X1364397Y765612D01*
X1364434Y765596D01*
X1364921Y765110D01*
X1366929Y763950D01*
X1369170Y763350D01*
X1371490D01*
X1373730Y763950D01*
X1375739Y765110D01*
X1377380Y766750D01*
X1378540Y768760D01*
X1379140Y771000D01*
Y773320D01*
X1378540Y775561D01*
X1377380Y777570D01*
X1375739Y779210D01*
X1373730Y780370D01*
X1371490Y780970D01*
X1369170D01*
X1366929Y780370D01*
X1364921Y779210D01*
X1364434Y778724D01*
X1364397Y778708D01*
X1364382Y778704D01*
X1364243Y778673D01*
X1364079Y778647D01*
X1363917Y778634D01*
X1356360D01*
X1353882Y778142D01*
X1351782Y776738D01*
X1306761Y731717D01*
X1304414Y732689D01*
Y789940D01*
X1303922Y792418D01*
X1302518Y794518D01*
X1287278Y809758D01*
X1285178Y811162D01*
X1282700Y811654D01*
X1224801D01*
X1224226Y814113D01*
X1224265Y814434D01*
X1224285Y814538D01*
X1224297Y814583D01*
X1224324Y814644D01*
X1224341Y814716D01*
X1224349Y814741D01*
X1224352Y814759D01*
X1224997Y815876D01*
X1225597Y818117D01*
Y820437D01*
X1224997Y822678D01*
X1223837Y824687D01*
X1223656Y824868D01*
X1224708Y827408D01*
X1305926D01*
X1319775Y813558D01*
Y790842D01*
X1319770Y790786D01*
X1319737Y790577D01*
X1319706Y790438D01*
X1319702Y790424D01*
X1319686Y790386D01*
X1319200Y789900D01*
X1318040Y787891D01*
X1317440Y785650D01*
Y783330D01*
X1318040Y781090D01*
X1319200Y779081D01*
X1320840Y777440D01*
X1322849Y776281D01*
X1325090Y775680D01*
X1327410D01*
X1329650Y776281D01*
X1331659Y777440D01*
X1333300Y779081D01*
X1334459Y781090D01*
X1335060Y783330D01*
Y785650D01*
X1334459Y787891D01*
X1333300Y789900D01*
X1332813Y790386D01*
X1332798Y790424D01*
X1332793Y790438D01*
X1332763Y790577D01*
X1332737Y790741D01*
X1332724Y790903D01*
Y816240D01*
X1332231Y818718D01*
X1330828Y820818D01*
X1313186Y838460D01*
X1311086Y839864D01*
X1308608Y840356D01*
X1036576D01*
X1036520Y840362D01*
X1036311Y840395D01*
X1036172Y840425D01*
X1036158Y840430D01*
X1036120Y840445D01*
X1035633Y840932D01*
X1033624Y842092D01*
X1031384Y842692D01*
D02*
G37*
G36*
X989147Y799375D02*
X986230D01*
X983369Y798806D01*
X980673Y797690D01*
X978248Y796069D01*
X976185Y794006D01*
X974564Y791580D01*
X973448Y788885D01*
X972878Y786024D01*
Y783107D01*
X973448Y780245D01*
X974564Y777550D01*
X976185Y775124D01*
X978248Y773062D01*
X980673Y771441D01*
X983369Y770324D01*
X986230Y769755D01*
X989147D01*
X992009Y770324D01*
X994704Y771441D01*
X997129Y773062D01*
X999192Y775124D01*
X1000813Y777550D01*
X1001929Y780245D01*
X1002499Y783107D01*
Y786024D01*
X1001929Y788885D01*
X1000813Y791580D01*
X999192Y794006D01*
X997129Y796069D01*
X994704Y797690D01*
X992009Y798806D01*
X989147Y799375D01*
D02*
G37*
G36*
X1501664Y798105D02*
X1498746D01*
X1495885Y797536D01*
X1493190Y796420D01*
X1490764Y794799D01*
X1488701Y792736D01*
X1487081Y790310D01*
X1485964Y787615D01*
X1485395Y784754D01*
Y781837D01*
X1485964Y778975D01*
X1487081Y776280D01*
X1488701Y773854D01*
X1490764Y771792D01*
X1493190Y770171D01*
X1495885Y769054D01*
X1498746Y768485D01*
X1501664D01*
X1504525Y769054D01*
X1507220Y770171D01*
X1509646Y771792D01*
X1511709Y773854D01*
X1513329Y776280D01*
X1514446Y778975D01*
X1515015Y781837D01*
Y784754D01*
X1514446Y787615D01*
X1513329Y790310D01*
X1511709Y792736D01*
X1509646Y794799D01*
X1507220Y796420D01*
X1504525Y797536D01*
X1501664Y798105D01*
D02*
G37*
G36*
X1049474Y778125D02*
X1045903D01*
X1042455Y777201D01*
X1039362Y775416D01*
X1036838Y772891D01*
X1035053Y769799D01*
X1034129Y766350D01*
Y762780D01*
X1035053Y759331D01*
X1036838Y756239D01*
X1039362Y753715D01*
X1042455Y751929D01*
X1045903Y751005D01*
X1049474D01*
X1052923Y751929D01*
X1056015Y753715D01*
X1058539Y756239D01*
X1060324Y759331D01*
X1061249Y762780D01*
Y766350D01*
X1060324Y769799D01*
X1058539Y772891D01*
X1056015Y775416D01*
X1052923Y777201D01*
X1049474Y778125D01*
D02*
G37*
G36*
X929474D02*
X925903D01*
X922455Y777201D01*
X919362Y775416D01*
X916838Y772891D01*
X915053Y769799D01*
X914129Y766350D01*
Y762780D01*
X915053Y759331D01*
X916838Y756239D01*
X919362Y753715D01*
X922455Y751929D01*
X925903Y751005D01*
X929474D01*
X932923Y751929D01*
X936015Y753715D01*
X938539Y756239D01*
X940324Y759331D01*
X941248Y762780D01*
Y766350D01*
X940324Y769799D01*
X938539Y772891D01*
X936015Y775416D01*
X932923Y777201D01*
X929474Y778125D01*
D02*
G37*
G36*
X1049147Y657375D02*
X1046230D01*
X1043369Y656806D01*
X1040673Y655690D01*
X1038248Y654069D01*
X1036185Y652006D01*
X1034564Y649580D01*
X1033448Y646885D01*
X1032879Y644024D01*
Y641107D01*
X1033448Y638245D01*
X1034564Y635550D01*
X1036185Y633124D01*
X1038248Y631062D01*
X1040673Y629441D01*
X1043369Y628324D01*
X1046230Y627755D01*
X1049147D01*
X1052009Y628324D01*
X1054704Y629441D01*
X1057129Y631062D01*
X1059192Y633124D01*
X1060813Y635550D01*
X1061929Y638245D01*
X1062499Y641107D01*
Y644024D01*
X1061929Y646885D01*
X1060813Y649580D01*
X1059192Y652006D01*
X1057129Y654069D01*
X1054704Y655690D01*
X1052009Y656806D01*
X1049147Y657375D01*
D02*
G37*
G36*
X1441664Y656105D02*
X1438746D01*
X1435885Y655536D01*
X1433190Y654420D01*
X1430764Y652799D01*
X1428701Y650736D01*
X1427081Y648310D01*
X1425964Y645615D01*
X1425395Y642754D01*
Y639837D01*
X1425964Y636975D01*
X1427081Y634280D01*
X1428701Y631854D01*
X1430764Y629791D01*
X1433190Y628171D01*
X1435885Y627054D01*
X1438746Y626485D01*
X1441664D01*
X1444525Y627054D01*
X1447220Y628171D01*
X1449646Y629791D01*
X1451709Y631854D01*
X1453329Y634280D01*
X1454446Y636975D01*
X1455015Y639837D01*
Y642754D01*
X1454446Y645615D01*
X1453329Y648310D01*
X1451709Y650736D01*
X1449646Y652799D01*
X1447220Y654420D01*
X1444525Y655536D01*
X1441664Y656105D01*
D02*
G37*
G36*
X1282685Y788630D02*
X1280175D01*
X1277856Y787669D01*
X1276081Y785894D01*
X1275120Y783575D01*
Y781065D01*
X1275603Y779899D01*
Y749174D01*
X1225875Y699445D01*
X1224612Y697555D01*
X1224168Y695325D01*
Y621546D01*
X1223685Y620380D01*
Y617870D01*
X1224646Y615551D01*
X1226421Y613776D01*
X1228740Y612815D01*
X1231250D01*
X1233569Y613776D01*
X1235344Y615551D01*
X1236305Y617870D01*
Y620380D01*
X1235822Y621546D01*
Y692911D01*
X1285550Y742640D01*
X1286813Y744530D01*
X1287257Y746760D01*
Y779899D01*
X1287740Y781065D01*
Y783575D01*
X1286779Y785894D01*
X1285004Y787669D01*
X1282685Y788630D01*
D02*
G37*
G36*
X1333954Y637640D02*
X1331972Y637245D01*
X1330292Y636123D01*
X1330292Y636122D01*
X1328337Y634168D01*
X1328097D01*
X1325778Y633207D01*
X1324003Y631432D01*
X1323042Y629113D01*
Y626603D01*
X1324003Y624283D01*
X1325778Y622509D01*
X1328097Y621548D01*
X1330607D01*
X1332926Y622509D01*
X1334702Y624283D01*
X1335662Y626603D01*
Y626843D01*
X1336100Y627281D01*
X1347865D01*
X1351649Y623497D01*
Y571815D01*
X1351479Y571645D01*
X1350518Y569326D01*
Y566816D01*
X1351479Y564497D01*
X1353254Y562722D01*
X1355573Y561761D01*
X1358083D01*
X1360402Y562722D01*
X1362177Y564497D01*
X1363138Y566816D01*
Y569326D01*
X1362177Y571645D01*
X1362007Y571815D01*
Y625642D01*
X1361613Y627624D01*
X1360491Y629305D01*
X1353672Y636123D01*
X1351992Y637245D01*
X1350010Y637640D01*
X1333954D01*
X1333954Y637640D01*
D02*
G37*
G36*
X1553758Y562450D02*
X1550122D01*
X1546609Y561509D01*
X1543460Y559691D01*
X1540889Y557120D01*
X1539071Y553970D01*
X1538130Y550458D01*
Y546822D01*
X1539071Y543310D01*
X1540889Y540160D01*
X1543460Y537589D01*
X1546609Y535771D01*
X1550122Y534830D01*
X1553758D01*
X1557271Y535771D01*
X1560420Y537589D01*
X1562991Y540160D01*
X1564809Y543310D01*
X1565750Y546822D01*
Y550458D01*
X1564809Y553970D01*
X1562991Y557120D01*
X1560420Y559691D01*
X1557271Y561509D01*
X1553758Y562450D01*
D02*
G37*
G36*
X1502958D02*
X1499322D01*
X1495809Y561509D01*
X1492660Y559691D01*
X1490089Y557120D01*
X1488271Y553970D01*
X1487330Y550458D01*
Y546822D01*
X1488271Y543310D01*
X1490089Y540160D01*
X1492660Y537589D01*
X1495809Y535771D01*
X1499322Y534830D01*
X1502958D01*
X1506470Y535771D01*
X1509619Y537589D01*
X1512191Y540160D01*
X1514009Y543310D01*
X1514950Y546822D01*
Y550458D01*
X1514009Y553970D01*
X1512191Y557120D01*
X1509619Y559691D01*
X1506470Y561509D01*
X1502958Y562450D01*
D02*
G37*
G36*
X1452158D02*
X1448522D01*
X1445009Y561509D01*
X1441860Y559691D01*
X1439289Y557120D01*
X1437471Y553970D01*
X1436530Y550458D01*
Y546822D01*
X1437471Y543310D01*
X1439289Y540160D01*
X1441860Y537589D01*
X1445009Y535771D01*
X1448522Y534830D01*
X1452158D01*
X1455670Y535771D01*
X1458819Y537589D01*
X1461391Y540160D01*
X1463209Y543310D01*
X1464150Y546822D01*
Y550458D01*
X1463209Y553970D01*
X1461391Y557120D01*
X1458819Y559691D01*
X1455670Y561509D01*
X1452158Y562450D01*
D02*
G37*
G36*
X1234988D02*
X1231352D01*
X1227840Y561509D01*
X1224690Y559691D01*
X1222119Y557120D01*
X1220301Y553970D01*
X1219360Y550458D01*
Y546822D01*
X1220301Y543310D01*
X1222119Y540160D01*
X1224690Y537589D01*
X1227840Y535771D01*
X1231352Y534830D01*
X1234988D01*
X1238501Y535771D01*
X1241650Y537589D01*
X1244221Y540160D01*
X1246039Y543310D01*
X1246980Y546822D01*
Y550458D01*
X1246039Y553970D01*
X1244221Y557120D01*
X1241650Y559691D01*
X1238501Y561509D01*
X1234988Y562450D01*
D02*
G37*
G36*
X1184188D02*
X1180552D01*
X1177039Y561509D01*
X1173890Y559691D01*
X1171319Y557120D01*
X1169501Y553970D01*
X1168560Y550458D01*
Y546822D01*
X1169501Y543310D01*
X1171319Y540160D01*
X1173890Y537589D01*
X1177039Y535771D01*
X1180552Y534830D01*
X1184188D01*
X1187700Y535771D01*
X1190850Y537589D01*
X1193421Y540160D01*
X1195239Y543310D01*
X1196180Y546822D01*
Y550458D01*
X1195239Y553970D01*
X1193421Y557120D01*
X1190850Y559691D01*
X1187700Y561509D01*
X1184188Y562450D01*
D02*
G37*
G36*
X1041948D02*
X1038312D01*
X1034799Y561509D01*
X1031650Y559691D01*
X1029079Y557120D01*
X1027261Y553970D01*
X1026320Y550458D01*
Y546822D01*
X1027261Y543310D01*
X1029079Y540160D01*
X1031650Y537589D01*
X1034799Y535771D01*
X1038312Y534830D01*
X1041948D01*
X1045461Y535771D01*
X1048610Y537589D01*
X1051181Y540160D01*
X1052999Y543310D01*
X1053940Y546822D01*
Y550458D01*
X1052999Y553970D01*
X1051181Y557120D01*
X1048610Y559691D01*
X1045461Y561509D01*
X1041948Y562450D01*
D02*
G37*
G36*
X991148D02*
X987512D01*
X983999Y561509D01*
X980850Y559691D01*
X978279Y557120D01*
X976461Y553970D01*
X975520Y550458D01*
Y546822D01*
X976461Y543310D01*
X978279Y540160D01*
X980850Y537589D01*
X983999Y535771D01*
X987512Y534830D01*
X991148D01*
X994660Y535771D01*
X997810Y537589D01*
X1000381Y540160D01*
X1002199Y543310D01*
X1003140Y546822D01*
Y550458D01*
X1002199Y553970D01*
X1000381Y557120D01*
X997810Y559691D01*
X994660Y561509D01*
X991148Y562450D01*
D02*
G37*
G36*
X940348D02*
X936712D01*
X933199Y561509D01*
X930050Y559691D01*
X927479Y557120D01*
X925661Y553970D01*
X924720Y550458D01*
Y546822D01*
X925661Y543310D01*
X927479Y540160D01*
X930050Y537589D01*
X933199Y535771D01*
X936712Y534830D01*
X940348D01*
X943860Y535771D01*
X947010Y537589D01*
X949581Y540160D01*
X951399Y543310D01*
X952340Y546822D01*
Y550458D01*
X951399Y553970D01*
X949581Y557120D01*
X947010Y559691D01*
X943860Y561509D01*
X940348Y562450D01*
D02*
G37*
%LPD*%
G36*
X1182338Y1125057D02*
X1182367Y1124913D01*
X1182415Y1124763D01*
X1182484Y1124607D01*
X1182572Y1124444D01*
X1182680Y1124275D01*
X1182808Y1124099D01*
X1182956Y1123917D01*
X1183311Y1123535D01*
X1181515Y1121739D01*
X1181321Y1121926D01*
X1180951Y1122242D01*
X1180775Y1122370D01*
X1180606Y1122478D01*
X1180443Y1122566D01*
X1180287Y1122635D01*
X1180136Y1122683D01*
X1179993Y1122711D01*
X1179855Y1122720D01*
X1182330Y1125195D01*
X1182338Y1125057D01*
D02*
G37*
G36*
X1321189Y1123331D02*
X1321107Y1123209D01*
X1321035Y1123069D01*
X1320973Y1122910D01*
X1320920Y1122732D01*
X1320877Y1122536D01*
X1320843Y1122322D01*
X1320819Y1122089D01*
X1320800Y1121567D01*
X1318260D01*
X1318255Y1121837D01*
X1318217Y1122322D01*
X1318183Y1122536D01*
X1318140Y1122732D01*
X1318087Y1122910D01*
X1318025Y1123069D01*
X1317953Y1123209D01*
X1317871Y1123331D01*
X1317780Y1123435D01*
X1321280D01*
X1321189Y1123331D01*
D02*
G37*
G36*
X1311029Y1085231D02*
X1310947Y1085109D01*
X1310875Y1084969D01*
X1310813Y1084810D01*
X1310760Y1084632D01*
X1310717Y1084436D01*
X1310683Y1084222D01*
X1310659Y1083989D01*
X1310640Y1083467D01*
X1308100D01*
X1308095Y1083737D01*
X1308057Y1084222D01*
X1308023Y1084436D01*
X1307980Y1084632D01*
X1307927Y1084810D01*
X1307865Y1084969D01*
X1307793Y1085109D01*
X1307711Y1085231D01*
X1307620Y1085335D01*
X1311120D01*
X1311029Y1085231D01*
D02*
G37*
G36*
X1237020Y958135D02*
X1237140Y957568D01*
X1237341Y956975D01*
X1237621Y956356D01*
X1237982Y955712D01*
X1238423Y955042D01*
X1238944Y954346D01*
X1240227Y952878D01*
X1240988Y952105D01*
X1230432D01*
X1231193Y952878D01*
X1232476Y954346D01*
X1232997Y955042D01*
X1233438Y955712D01*
X1233799Y956356D01*
X1234079Y956975D01*
X1234280Y957568D01*
X1234400Y958135D01*
X1234440Y958676D01*
X1236980D01*
X1237020Y958135D01*
D02*
G37*
G36*
X1211620D02*
X1211740Y957568D01*
X1211941Y956975D01*
X1212221Y956356D01*
X1212582Y955712D01*
X1213023Y955042D01*
X1213544Y954346D01*
X1214827Y952878D01*
X1215588Y952105D01*
X1205032D01*
X1205794Y952878D01*
X1207076Y954346D01*
X1207597Y955042D01*
X1208038Y955712D01*
X1208399Y956356D01*
X1208679Y956975D01*
X1208880Y957568D01*
X1209000Y958135D01*
X1209040Y958676D01*
X1211580D01*
X1211620Y958135D01*
D02*
G37*
G36*
X1182983Y923600D02*
X1182776Y923782D01*
X1182533Y923946D01*
X1182252Y924090D01*
X1181934Y924214D01*
X1181579Y924320D01*
X1181187Y924406D01*
X1180757Y924474D01*
X1180291Y924522D01*
X1179247Y924560D01*
Y929640D01*
X1179788Y929650D01*
X1180757Y929726D01*
X1181187Y929794D01*
X1181579Y929880D01*
X1181934Y929986D01*
X1182252Y930110D01*
X1182533Y930254D01*
X1182776Y930418D01*
X1182983Y930600D01*
Y923600D01*
D02*
G37*
G36*
X1134585Y930418D02*
X1134829Y930254D01*
X1135110Y930110D01*
X1135428Y929986D01*
X1135783Y929880D01*
X1136175Y929794D01*
X1136605Y929726D01*
X1137071Y929678D01*
X1138115Y929640D01*
Y924560D01*
X1137574Y924550D01*
X1136605Y924474D01*
X1136175Y924406D01*
X1135783Y924320D01*
X1135428Y924214D01*
X1135110Y924090D01*
X1134829Y923946D01*
X1134585Y923782D01*
X1134379Y923600D01*
Y930600D01*
X1134585Y930418D01*
D02*
G37*
G36*
X1294885Y916460D02*
X1294781Y916551D01*
X1294659Y916633D01*
X1294519Y916705D01*
X1294360Y916767D01*
X1294182Y916820D01*
X1293986Y916863D01*
X1293772Y916897D01*
X1293539Y916921D01*
X1293017Y916940D01*
Y919480D01*
X1293287Y919485D01*
X1293772Y919523D01*
X1293986Y919557D01*
X1294182Y919600D01*
X1294360Y919653D01*
X1294519Y919715D01*
X1294659Y919787D01*
X1294781Y919869D01*
X1294885Y919960D01*
Y916460D01*
D02*
G37*
G36*
X1400696Y908521D02*
X1400556Y908537D01*
X1400409Y908531D01*
X1400257Y908502D01*
X1400098Y908451D01*
X1399934Y908377D01*
X1399763Y908281D01*
X1399587Y908162D01*
X1399404Y908021D01*
X1399215Y907857D01*
X1399021Y907670D01*
X1397631Y909872D01*
X1397822Y910068D01*
X1398288Y910601D01*
X1398407Y910760D01*
X1398591Y911050D01*
X1398656Y911182D01*
X1398702Y911304D01*
X1398731Y911417D01*
X1400696Y908521D01*
D02*
G37*
G36*
X1179795Y910090D02*
X1179917Y910008D01*
X1180057Y909936D01*
X1180216Y909874D01*
X1180394Y909821D01*
X1180590Y909778D01*
X1180804Y909744D01*
X1181037Y909720D01*
X1181559Y909701D01*
Y907161D01*
X1181289Y907156D01*
X1180804Y907118D01*
X1180590Y907084D01*
X1180394Y907041D01*
X1180216Y906988D01*
X1180057Y906926D01*
X1179917Y906854D01*
X1179795Y906772D01*
X1179691Y906681D01*
Y910181D01*
X1179795Y910090D01*
D02*
G37*
G36*
X1363583Y1113671D02*
X1363705Y1113589D01*
X1363845Y1113517D01*
X1364004Y1113455D01*
X1364182Y1113402D01*
X1364378Y1113359D01*
X1364592Y1113325D01*
X1364825Y1113301D01*
X1365347Y1113282D01*
Y1110742D01*
X1365077Y1110737D01*
X1364592Y1110699D01*
X1364378Y1110665D01*
X1364182Y1110622D01*
X1364004Y1110569D01*
X1363845Y1110507D01*
X1363705Y1110435D01*
X1363583Y1110353D01*
X1363479Y1110262D01*
Y1113762D01*
X1363583Y1113671D01*
D02*
G37*
G36*
X1374759Y1101479D02*
X1374881Y1101397D01*
X1375021Y1101325D01*
X1375180Y1101263D01*
X1375358Y1101210D01*
X1375554Y1101167D01*
X1375768Y1101133D01*
X1376001Y1101109D01*
X1376523Y1101090D01*
Y1098550D01*
X1376253Y1098545D01*
X1375768Y1098507D01*
X1375554Y1098473D01*
X1375358Y1098430D01*
X1375180Y1098377D01*
X1375021Y1098315D01*
X1374881Y1098243D01*
X1374759Y1098161D01*
X1374655Y1098070D01*
Y1101570D01*
X1374759Y1101479D01*
D02*
G37*
G36*
X1339985Y971185D02*
X1339903Y971063D01*
X1339831Y970923D01*
X1339769Y970764D01*
X1339716Y970586D01*
X1339673Y970390D01*
X1339639Y970176D01*
X1339615Y969943D01*
X1339596Y969421D01*
X1337056D01*
X1337051Y969691D01*
X1337013Y970176D01*
X1336979Y970390D01*
X1336936Y970586D01*
X1336883Y970764D01*
X1336821Y970923D01*
X1336749Y971063D01*
X1336667Y971185D01*
X1336576Y971289D01*
X1340076D01*
X1339985Y971185D01*
D02*
G37*
G36*
X1344709Y932934D02*
X1345079Y932618D01*
X1345255Y932490D01*
X1345424Y932382D01*
X1345587Y932294D01*
X1345743Y932225D01*
X1345894Y932177D01*
X1346037Y932149D01*
X1346175Y932140D01*
X1343700Y929665D01*
X1343692Y929803D01*
X1343663Y929947D01*
X1343615Y930097D01*
X1343546Y930253D01*
X1343458Y930416D01*
X1343350Y930585D01*
X1343222Y930761D01*
X1343074Y930943D01*
X1342719Y931325D01*
X1344515Y933121D01*
X1344709Y932934D01*
D02*
G37*
G36*
X1314455Y649813D02*
X1314493Y649328D01*
X1314527Y649114D01*
X1314570Y648918D01*
X1314623Y648740D01*
X1314685Y648581D01*
X1314757Y648441D01*
X1314839Y648319D01*
X1314930Y648215D01*
X1311430D01*
X1311521Y648319D01*
X1311603Y648441D01*
X1311675Y648581D01*
X1311737Y648740D01*
X1311790Y648918D01*
X1311833Y649114D01*
X1311867Y649328D01*
X1311891Y649561D01*
X1311910Y650083D01*
X1314450D01*
X1314455Y649813D01*
D02*
G37*
G36*
X1334441Y649385D02*
X1334254Y649191D01*
X1333938Y648821D01*
X1333810Y648645D01*
X1333702Y648476D01*
X1333614Y648313D01*
X1333545Y648157D01*
X1333497Y648007D01*
X1333468Y647863D01*
X1333460Y647725D01*
X1330985Y650200D01*
X1331123Y650209D01*
X1331266Y650237D01*
X1331417Y650285D01*
X1331573Y650354D01*
X1331736Y650442D01*
X1331905Y650550D01*
X1332081Y650678D01*
X1332263Y650826D01*
X1332645Y651181D01*
X1334441Y649385D01*
D02*
G37*
G36*
X1034001Y837200D02*
X1034245Y837036D01*
X1034526Y836892D01*
X1034844Y836768D01*
X1035199Y836662D01*
X1035591Y836576D01*
X1036021Y836508D01*
X1036487Y836460D01*
X1037531Y836422D01*
Y831342D01*
X1036990Y831332D01*
X1036021Y831256D01*
X1035591Y831188D01*
X1035199Y831102D01*
X1034844Y830996D01*
X1034526Y830872D01*
X1034245Y830728D01*
X1034001Y830564D01*
X1033795Y830382D01*
Y837382D01*
X1034001Y837200D01*
D02*
G37*
G36*
X1220777Y816228D02*
X1220670Y815989D01*
X1220576Y815712D01*
X1220495Y815395D01*
X1220425Y815041D01*
X1220325Y814215D01*
X1220294Y813745D01*
X1220268Y812688D01*
X1215188Y811539D01*
X1215177Y812079D01*
X1215083Y813036D01*
X1215002Y813454D01*
X1214897Y813831D01*
X1214769Y814168D01*
X1214617Y814464D01*
X1214442Y814721D01*
X1214243Y814936D01*
X1214022Y815111D01*
X1220897Y816429D01*
X1220777Y816228D01*
D02*
G37*
G36*
X1328799Y791256D02*
X1328876Y790287D01*
X1328943Y789858D01*
X1329030Y789465D01*
X1329135Y789110D01*
X1329260Y788792D01*
X1329404Y788512D01*
X1329567Y788268D01*
X1329750Y788061D01*
X1322750D01*
X1322932Y788268D01*
X1323095Y788512D01*
X1323239Y788792D01*
X1323364Y789110D01*
X1323470Y789465D01*
X1323556Y789858D01*
X1323623Y790287D01*
X1323671Y790753D01*
X1323710Y791797D01*
X1328790D01*
X1328799Y791256D01*
D02*
G37*
G36*
X1366759Y768660D02*
X1366552Y768842D01*
X1366309Y769006D01*
X1366028Y769150D01*
X1365710Y769274D01*
X1365355Y769380D01*
X1364963Y769466D01*
X1364533Y769534D01*
X1364067Y769582D01*
X1363023Y769620D01*
Y774700D01*
X1363564Y774710D01*
X1364533Y774786D01*
X1364963Y774854D01*
X1365355Y774940D01*
X1365710Y775046D01*
X1366028Y775170D01*
X1366309Y775314D01*
X1366552Y775478D01*
X1366759Y775660D01*
Y768660D01*
D02*
G37*
G36*
X1300490Y720506D02*
X1300531Y719980D01*
X1300545Y719992D01*
X1301311Y720703D01*
X1304903Y717111D01*
X1304527Y716722D01*
X1303896Y715982D01*
X1303640Y715631D01*
X1303424Y715292D01*
X1303247Y714967D01*
X1303111Y714653D01*
X1303014Y714353D01*
X1302957Y714065D01*
X1302940Y713790D01*
X1299419Y717311D01*
X1294440D01*
X1294622Y717517D01*
X1294786Y717761D01*
X1294930Y718042D01*
X1295054Y718360D01*
X1295160Y718715D01*
X1295246Y719107D01*
X1295314Y719537D01*
X1295362Y720003D01*
X1295400Y721047D01*
X1300480D01*
X1300490Y720506D01*
D02*
G37*
G36*
X1332834Y629543D02*
X1332646Y629349D01*
X1332330Y628979D01*
X1332202Y628803D01*
X1332094Y628634D01*
X1332006Y628471D01*
X1331938Y628315D01*
X1331889Y628164D01*
X1331861Y628020D01*
X1331852Y627883D01*
X1329377Y630358D01*
X1329515Y630366D01*
X1329659Y630395D01*
X1329809Y630443D01*
X1329965Y630512D01*
X1330128Y630600D01*
X1330297Y630708D01*
X1330473Y630836D01*
X1330655Y630984D01*
X1331037Y631339D01*
X1332834Y629543D01*
D02*
G37*
G36*
X1358103Y571454D02*
X1358141Y570969D01*
X1358175Y570755D01*
X1358218Y570559D01*
X1358271Y570381D01*
X1358333Y570222D01*
X1358405Y570082D01*
X1358487Y569960D01*
X1358578Y569856D01*
X1355078D01*
X1355169Y569960D01*
X1355251Y570082D01*
X1355323Y570222D01*
X1355385Y570381D01*
X1355438Y570559D01*
X1355481Y570755D01*
X1355515Y570969D01*
X1355539Y571202D01*
X1355558Y571724D01*
X1358098D01*
X1358103Y571454D01*
D02*
G37*
D72*
X1333954Y632460D02*
X1350010D01*
X1329352Y627858D02*
X1333954Y632460D01*
X1350010D02*
X1356828Y625642D01*
X1336040Y652780D02*
X1405890D01*
X1330960Y647700D02*
X1336040Y652780D01*
X1405890D02*
X1421130Y668020D01*
Y1093470D01*
X1402588Y1112012D02*
X1421130Y1093470D01*
X1361694Y1112012D02*
X1402588D01*
X1356828Y568071D02*
Y625642D01*
X1313180Y646430D02*
Y652780D01*
X1318260Y657860D01*
X1399540D01*
X1416050Y674370D01*
Y1085850D01*
X1372870Y1099820D02*
X1402080D01*
X1416050Y1085850D01*
X1177906Y908431D02*
X1397985D01*
X1400525Y910971D01*
X1338326Y937514D02*
X1346200Y929640D01*
X1338326Y937514D02*
Y973074D01*
X1400525Y910971D02*
X1401191D01*
X1196090Y918210D02*
X1296670D01*
X1194602Y919698D02*
Y1110448D01*
Y919698D02*
X1196090Y918210D01*
X1235710Y977900D02*
X1319530Y1061720D01*
Y1125220D01*
X1235710Y946720D02*
Y977900D01*
X1309370Y1064260D02*
Y1087120D01*
X1210310Y946720D02*
Y965200D01*
X1309370Y1064260D01*
X1179830Y1125220D02*
X1194602Y1110448D01*
D74*
X1094740Y1087120D02*
X1139190D01*
X1002030Y1179830D02*
X1094740Y1087120D01*
X1002030Y1179830D02*
Y1188720D01*
X1102360Y942340D02*
X1185954D01*
X1292860Y986790D02*
X1395730D01*
X1402842Y942340D02*
Y979678D01*
X1395730Y986790D02*
X1402842Y979678D01*
X1016000Y1137920D02*
X1079500Y1074420D01*
X1002030Y1137920D02*
X1016000D01*
X1079500Y1074420D02*
X1139190D01*
X1128075Y1036320D02*
X1138743Y1046988D01*
X1003300Y1036320D02*
X1128075D01*
X1007110Y833120D02*
Y847090D01*
X1102360Y942340D01*
X1122172Y983742D02*
X1140968D01*
X1022814Y884384D02*
X1122172Y983742D01*
X1002836Y884384D02*
X1022814D01*
X1001014Y936244D02*
X1053084D01*
X1114376Y997536D02*
X1140317D01*
X1053084Y936244D02*
X1114376Y997536D01*
X1002030Y885190D02*
X1002836Y884384D01*
X1000760Y935990D02*
X1001014Y936244D01*
X1002030Y984250D02*
X1076960D01*
X1103630Y1010920D01*
X1221740Y805180D02*
X1282700D01*
X1297940Y789940D01*
X1217728Y809192D02*
X1221740Y805180D01*
X1217728Y809192D02*
Y818336D01*
X1216787Y819277D02*
X1217728Y818336D01*
X1297940Y713740D02*
Y789940D01*
X1030224Y833882D02*
X1308608D01*
X1326250Y784490D02*
Y816240D01*
X1308608Y833882D02*
X1326250Y816240D01*
X1297940Y713740D02*
X1356360Y772160D01*
X1370330D01*
X1130808Y927100D02*
X1186554D01*
X1011682Y1087628D02*
X1043432Y1055878D01*
X1002538Y1087628D02*
X1011682D01*
X1043432Y1055878D02*
X1134440D01*
X1103630Y1010920D02*
X1140714D01*
X1140968Y1010666D01*
X1140282Y1061720D02*
X1140460D01*
X1134440Y1055878D02*
X1140282Y1061720D01*
D76*
X1229995Y695325D02*
X1281430Y746760D01*
X1229995Y619125D02*
Y695325D01*
X1281430Y746760D02*
Y782320D01*
D77*
X987689Y784565D02*
X988509Y783745D01*
Y549461D02*
X989330Y548640D01*
D79*
X1308321Y502850D02*
D03*
X1394721D02*
D03*
D80*
X1308321Y542850D02*
D03*
X1394721D02*
D03*
D81*
X1287780Y946720D02*
D03*
D82*
X1262380D02*
D03*
X1211580D02*
D03*
X1236980D02*
D03*
D83*
X1139680Y1171720D02*
D03*
X1359680D02*
D03*
D84*
X1131570Y548640D02*
D03*
X1040130D02*
D03*
X989330D02*
D03*
X938530D02*
D03*
X1551940D02*
D03*
X1501140D02*
D03*
X1450340D02*
D03*
X1182370D02*
D03*
X1233170D02*
D03*
X1511300Y840740D02*
D03*
Y891540D02*
D03*
Y942340D02*
D03*
Y993140D02*
D03*
Y1043940D02*
D03*
Y1094740D02*
D03*
Y1145540D02*
D03*
Y1196340D02*
D03*
X972148Y833330D02*
D03*
Y884130D02*
D03*
Y934930D02*
D03*
Y985730D02*
D03*
Y1036530D02*
D03*
Y1087330D02*
D03*
Y1138130D02*
D03*
Y1188930D02*
D03*
D85*
X927689Y642565D02*
D03*
X1047689D02*
D03*
X987689Y784565D02*
D03*
X1500205Y783295D02*
D03*
X1560205Y641295D02*
D03*
X1440205D02*
D03*
D86*
X927689Y764565D02*
D03*
X1047689D02*
D03*
X1440205Y763295D02*
D03*
X1560205D02*
D03*
D87*
X1423670Y1107440D02*
D03*
X1398270Y1150620D02*
D03*
X1412240Y1196340D02*
D03*
X1435100D02*
D03*
X1410970Y1168400D02*
D03*
X1433830Y1177290D02*
D03*
X1571190Y1196190D02*
D03*
X1563810Y1166190D02*
D03*
X1571190Y1136190D02*
D03*
X1563810Y1106190D02*
D03*
X1571190Y1076190D02*
D03*
X1563810Y1046190D02*
D03*
X1571190Y1016190D02*
D03*
X1563810Y986190D02*
D03*
X1571190Y956190D02*
D03*
X1563810Y926190D02*
D03*
X1571190Y896190D02*
D03*
X1563810Y866190D02*
D03*
X1571190Y836190D02*
D03*
Y776190D02*
D03*
Y716190D02*
D03*
X1563810Y686190D02*
D03*
X1571190Y656190D02*
D03*
Y596190D02*
D03*
Y536190D02*
D03*
X1563810Y506190D02*
D03*
X1548810Y1196190D02*
D03*
X1533810Y1166190D02*
D03*
X1548810Y1136190D02*
D03*
X1533810Y1106190D02*
D03*
X1548810Y1076190D02*
D03*
X1533810Y1046190D02*
D03*
X1548810Y1016190D02*
D03*
X1533810Y986190D02*
D03*
X1548810Y956190D02*
D03*
X1533810Y926190D02*
D03*
X1548810Y896190D02*
D03*
X1533810Y866190D02*
D03*
X1548810Y836190D02*
D03*
Y776190D02*
D03*
X1533810Y746190D02*
D03*
X1548810Y716190D02*
D03*
X1533810Y686190D02*
D03*
X1548810Y656190D02*
D03*
X1533810Y626190D02*
D03*
Y566190D02*
D03*
Y506190D02*
D03*
X1503810Y1166190D02*
D03*
X1502540Y1112540D02*
D03*
X1518810Y1016190D02*
D03*
Y956190D02*
D03*
X1503810Y926190D02*
D03*
Y866190D02*
D03*
X1518810Y716190D02*
D03*
Y656190D02*
D03*
Y596190D02*
D03*
Y536190D02*
D03*
X1503810Y506190D02*
D03*
X1473810Y1166190D02*
D03*
Y1106190D02*
D03*
X1488810Y1076190D02*
D03*
X1473810Y1046190D02*
D03*
X1488810Y1016190D02*
D03*
Y956190D02*
D03*
X1473810Y866190D02*
D03*
Y746190D02*
D03*
X1488810Y716190D02*
D03*
X1473810Y686190D02*
D03*
X1488810Y656190D02*
D03*
X1473810Y626190D02*
D03*
X1488810Y596190D02*
D03*
X1473810Y566190D02*
D03*
X1488810Y536190D02*
D03*
X1473810Y506190D02*
D03*
X1458810Y1196190D02*
D03*
Y1136190D02*
D03*
Y1016190D02*
D03*
X1443810Y866190D02*
D03*
X1458810Y776190D02*
D03*
Y716190D02*
D03*
X1443810Y686190D02*
D03*
X1458810Y656190D02*
D03*
X1443810Y506190D02*
D03*
X1428810Y656190D02*
D03*
Y596190D02*
D03*
Y536190D02*
D03*
X1413810Y506190D02*
D03*
X1398810Y1076190D02*
D03*
X1383810Y926190D02*
D03*
X1398810Y836190D02*
D03*
X1383810Y506190D02*
D03*
X1368810Y1196190D02*
D03*
Y1076190D02*
D03*
X1353810Y806190D02*
D03*
Y506190D02*
D03*
X1323810Y1046190D02*
D03*
Y926190D02*
D03*
X1338810Y896190D02*
D03*
Y836190D02*
D03*
X1323810Y506190D02*
D03*
X1308810Y1136190D02*
D03*
X1293810Y1106190D02*
D03*
X1308810Y1016190D02*
D03*
X1293810Y926190D02*
D03*
X1308810Y896190D02*
D03*
X1293810Y626190D02*
D03*
Y506190D02*
D03*
X1278810Y1136190D02*
D03*
X1263810Y1106190D02*
D03*
X1278810Y1076190D02*
D03*
X1263810Y1046190D02*
D03*
Y986190D02*
D03*
X1278810Y896190D02*
D03*
Y656190D02*
D03*
Y596190D02*
D03*
X1263810Y566190D02*
D03*
Y506190D02*
D03*
X1248810Y1136190D02*
D03*
X1233810Y1106190D02*
D03*
Y1046190D02*
D03*
X1248810Y1016190D02*
D03*
X1233810Y866190D02*
D03*
X1248810Y656190D02*
D03*
Y596190D02*
D03*
X1233810Y566190D02*
D03*
Y506190D02*
D03*
X1218810Y1136190D02*
D03*
Y1076190D02*
D03*
Y1016190D02*
D03*
X1203810Y866190D02*
D03*
X1218810Y776190D02*
D03*
X1203810Y686190D02*
D03*
X1218810Y596190D02*
D03*
X1203810Y566190D02*
D03*
X1218810Y536190D02*
D03*
X1203810Y506190D02*
D03*
X1188810Y1136190D02*
D03*
Y1076190D02*
D03*
Y896190D02*
D03*
Y776190D02*
D03*
X1173810Y746190D02*
D03*
X1188810Y716190D02*
D03*
X1173810Y686190D02*
D03*
Y626190D02*
D03*
X1188810Y596190D02*
D03*
X1173810Y566190D02*
D03*
Y506190D02*
D03*
X1143810Y1106190D02*
D03*
X1158810Y956190D02*
D03*
X1143810Y866190D02*
D03*
X1158810Y776190D02*
D03*
Y716190D02*
D03*
X1143810Y686190D02*
D03*
X1158810Y596190D02*
D03*
X1143810Y566190D02*
D03*
X1158810Y536190D02*
D03*
X1143810Y506190D02*
D03*
X1128810Y1196190D02*
D03*
X1113810Y1166190D02*
D03*
Y926190D02*
D03*
Y866190D02*
D03*
Y626190D02*
D03*
X1128810Y596190D02*
D03*
X1113810Y566190D02*
D03*
Y506190D02*
D03*
X1098810Y1016190D02*
D03*
X1083810Y866190D02*
D03*
Y746190D02*
D03*
Y626190D02*
D03*
X1098810Y596190D02*
D03*
X1083810Y566190D02*
D03*
X1098810Y536190D02*
D03*
X1083810Y506190D02*
D03*
X1053810Y866190D02*
D03*
X1068810Y776190D02*
D03*
Y716190D02*
D03*
X1053810Y686190D02*
D03*
X1068810Y656190D02*
D03*
Y596190D02*
D03*
Y536190D02*
D03*
X1053810Y506190D02*
D03*
X1023810Y1106190D02*
D03*
X1038810Y1076190D02*
D03*
X1023810Y1046190D02*
D03*
X1038810Y1016190D02*
D03*
Y776190D02*
D03*
X1023810Y746190D02*
D03*
X1038810Y716190D02*
D03*
X1023810Y686190D02*
D03*
X1038810Y656190D02*
D03*
X1023810Y626190D02*
D03*
Y566190D02*
D03*
Y506190D02*
D03*
X1008810Y1196190D02*
D03*
X993810Y1166190D02*
D03*
Y1106190D02*
D03*
Y1046190D02*
D03*
X1008810Y1016190D02*
D03*
Y956190D02*
D03*
Y896190D02*
D03*
X993810Y866190D02*
D03*
X1008810Y776190D02*
D03*
Y716190D02*
D03*
Y656190D02*
D03*
Y596190D02*
D03*
Y536190D02*
D03*
X993810Y506190D02*
D03*
X963810Y1166190D02*
D03*
Y1106190D02*
D03*
Y1046190D02*
D03*
X978810Y1016190D02*
D03*
Y956190D02*
D03*
X963810Y866190D02*
D03*
Y746190D02*
D03*
X978810Y716190D02*
D03*
X963810Y686190D02*
D03*
X978810Y656190D02*
D03*
X963810Y626190D02*
D03*
X978810Y596190D02*
D03*
X963810Y566190D02*
D03*
X978810Y536190D02*
D03*
X963810Y506190D02*
D03*
X948810Y1196190D02*
D03*
X933810Y1166190D02*
D03*
X948810Y1136190D02*
D03*
X933810Y1106190D02*
D03*
X948810Y1076190D02*
D03*
X933810Y1046190D02*
D03*
X948810Y1016190D02*
D03*
X933810Y986190D02*
D03*
X948810Y956190D02*
D03*
X933810Y926190D02*
D03*
X948810Y896190D02*
D03*
X933810Y866190D02*
D03*
X948810Y836190D02*
D03*
Y776190D02*
D03*
Y716190D02*
D03*
X933810Y686190D02*
D03*
X948810Y656190D02*
D03*
Y596190D02*
D03*
X933810Y506190D02*
D03*
X1329690Y594360D02*
D03*
X1380459Y594324D02*
D03*
X1308122Y767307D02*
D03*
X1313479Y762732D02*
D03*
X1329352Y627858D02*
D03*
X1329690Y617220D02*
D03*
X1356360Y798830D02*
D03*
Y789940D02*
D03*
X1433830Y836930D02*
D03*
Y844550D02*
D03*
X1407160Y878840D02*
D03*
X1374140Y864870D02*
D03*
X1366520Y857250D02*
D03*
X1358900D02*
D03*
X1366520Y864870D02*
D03*
X1358900D02*
D03*
X1300864Y688023D02*
D03*
X1299210Y699770D02*
D03*
X1347470Y645160D02*
D03*
X1388110Y673100D02*
D03*
X1270000Y871220D02*
D03*
X1261110D02*
D03*
X1032510Y966470D02*
D03*
Y974090D02*
D03*
X1033780Y946150D02*
D03*
X1108710Y1107440D02*
D03*
X1226720Y1091050D02*
D03*
X1241960D02*
D03*
X1257200D02*
D03*
X1226720Y1079620D02*
D03*
X1241960D02*
D03*
X1257200D02*
D03*
X1226720Y1069460D02*
D03*
X1241960D02*
D03*
X1257200D02*
D03*
X1226720Y1060570D02*
D03*
X1241960D02*
D03*
X1257200D02*
D03*
X1330960Y647700D02*
D03*
X1361694Y1112012D02*
D03*
X1313180Y646430D02*
D03*
X1356828Y568071D02*
D03*
X1229995Y619125D02*
D03*
X1281430Y782320D02*
D03*
X1002030Y885190D02*
D03*
X1007110Y833120D02*
D03*
X1000760Y935990D02*
D03*
X1002030Y984250D02*
D03*
X1003300Y1036320D02*
D03*
X1177906Y908431D02*
D03*
X1346200Y929640D02*
D03*
X1402842Y942340D02*
D03*
X1296670Y918210D02*
D03*
X1401191Y910971D02*
D03*
X1292860Y986790D02*
D03*
X1309370Y1087120D02*
D03*
X1140968Y1010666D02*
D03*
Y983742D02*
D03*
X1002538Y1087628D02*
D03*
X1001820Y1138130D02*
D03*
X1002030Y1188720D02*
D03*
X1140317Y997536D02*
D03*
X1138743Y1046988D02*
D03*
X1140460Y1061720D02*
D03*
X1139190Y1074420D02*
D03*
Y1087120D02*
D03*
X1338326Y973074D02*
D03*
X1372870Y1099820D02*
D03*
X1179830Y1125220D02*
D03*
X1319530D02*
D03*
D88*
X1185954Y942340D02*
D03*
X1326250Y784490D02*
D03*
X1370330Y772160D02*
D03*
X1297940Y713740D02*
D03*
X1030224Y833882D02*
D03*
X1216787Y819277D02*
D03*
X1186554Y927100D02*
D03*
X1130808D02*
D03*
M02*
