G04*
G04 #@! TF.GenerationSoftware,Altium Limited,Altium Designer,25.8.1 (18)*
G04*
G04 Layer_Color=2752767*
%FSLAX44Y44*%
%MOMM*%
G71*
G04*
G04 #@! TF.SameCoordinates,B0FFB41F-91FD-404A-B40E-8C3C6E9A6B17*
G04*
G04*
G04 #@! TF.FilePolarity,Positive*
G04*
G01*
G75*
%ADD13C,0.1270*%
%ADD90C,0.1693*%
D13*
X1308321Y537770D02*
X1303241Y547930D01*
X1313401D01*
X1308321Y537770D01*
X1394721D02*
X1389641Y547930D01*
X1399801D01*
X1394721Y537770D01*
X1282700Y941640D02*
X1285240Y946720D01*
X1282700Y951800D01*
X1287780Y949260D01*
X1292860Y951800D01*
X1290320Y946720D01*
X1292860Y941640D01*
X1287780Y944180D01*
X1282700Y941640D01*
X1257300D02*
X1259840Y946720D01*
X1257300Y951800D01*
X1262380Y949260D01*
X1267460Y951800D01*
X1264920Y946720D01*
X1267460Y941640D01*
X1262380Y944180D01*
X1257300Y941640D01*
X1206500D02*
X1209040Y946720D01*
X1206500Y951800D01*
X1211580Y949260D01*
X1216660Y951800D01*
X1214120Y946720D01*
X1216660Y941640D01*
X1211580Y944180D01*
X1206500Y941640D01*
X1231900D02*
X1234440Y946720D01*
X1231900Y951800D01*
X1236980Y949260D01*
X1242060Y951800D01*
X1239520Y946720D01*
X1242060Y941640D01*
X1236980Y944180D01*
X1231900Y941640D01*
X1137140Y1169180D02*
Y1166640D01*
X1142220D01*
Y1169180D01*
X1144760D01*
Y1174260D01*
X1142220D01*
Y1176800D01*
X1137140D01*
Y1174260D01*
X1134600D01*
Y1169180D01*
X1137140D01*
X1357140D02*
Y1166640D01*
X1362220D01*
Y1169180D01*
X1364760D01*
Y1174260D01*
X1362220D01*
Y1176800D01*
X1357140D01*
Y1174260D01*
X1354600D01*
Y1169180D01*
X1357140D01*
X1126490Y543560D02*
Y553720D01*
X1136650D01*
Y543560D01*
X1126490D01*
X922608Y637485D02*
Y647645D01*
X932768D01*
Y637485D01*
X922608D01*
X1042609D02*
Y647645D01*
X1052769D01*
Y637485D01*
X1042609D01*
X982609Y779485D02*
Y789645D01*
X992769D01*
Y779485D01*
X982609D01*
X922608Y759485D02*
Y769645D01*
X932768D01*
Y759485D01*
X922608D01*
X1042609D02*
Y769645D01*
X1052769D01*
Y759485D01*
X1042609D01*
X1035050Y543560D02*
Y553720D01*
X1045210D01*
Y543560D01*
X1035050D01*
X984250D02*
Y553720D01*
X994410D01*
Y543560D01*
X984250D01*
X933450D02*
Y553720D01*
X943610D01*
Y543560D01*
X933450D01*
X1546860D02*
Y553720D01*
X1557020D01*
Y543560D01*
X1546860D01*
X1496060D02*
Y553720D01*
X1506220D01*
Y543560D01*
X1496060D01*
X1445260D02*
Y553720D01*
X1455420D01*
Y543560D01*
X1445260D01*
X1177290D02*
Y553720D01*
X1187450D01*
Y543560D01*
X1177290D01*
X1228090D02*
Y553720D01*
X1238250D01*
Y543560D01*
X1228090D01*
X1495125Y778215D02*
Y788375D01*
X1505285D01*
Y778215D01*
X1495125D01*
X1555125Y636215D02*
Y646375D01*
X1565285D01*
Y636215D01*
X1555125D01*
X1435125D02*
Y646375D01*
X1445285D01*
Y636215D01*
X1435125D01*
Y758215D02*
Y768375D01*
X1445285D01*
Y758215D01*
X1435125D01*
X1555125D02*
Y768375D01*
X1565285D01*
Y758215D01*
X1555125D01*
X1506220Y835660D02*
Y845820D01*
X1516380D01*
Y835660D01*
X1506220D01*
Y886460D02*
Y896620D01*
X1516380D01*
Y886460D01*
X1506220D01*
Y937260D02*
Y947420D01*
X1516380D01*
Y937260D01*
X1506220D01*
Y988060D02*
Y998220D01*
X1516380D01*
Y988060D01*
X1506220D01*
Y1038860D02*
Y1049020D01*
X1516380D01*
Y1038860D01*
X1506220D01*
Y1089660D02*
Y1099820D01*
X1516380D01*
Y1089660D01*
X1506220D01*
Y1140460D02*
Y1150620D01*
X1516380D01*
Y1140460D01*
X1506220D01*
Y1191260D02*
Y1201420D01*
X1516380D01*
Y1191260D01*
X1506220D01*
X967068Y828250D02*
Y838410D01*
X977228D01*
Y828250D01*
X967068D01*
Y879050D02*
Y889210D01*
X977228D01*
Y879050D01*
X967068D01*
Y929850D02*
Y940010D01*
X977228D01*
Y929850D01*
X967068D01*
Y980650D02*
Y990810D01*
X977228D01*
Y980650D01*
X967068D01*
Y1031450D02*
Y1041610D01*
X977228D01*
Y1031450D01*
X967068D01*
Y1082250D02*
Y1092410D01*
X977228D01*
Y1082250D01*
X967068D01*
Y1133050D02*
Y1143210D01*
X977228D01*
Y1133050D01*
X967068D01*
Y1183850D02*
Y1194010D01*
X977228D01*
Y1183850D01*
X967068D01*
X1418590Y1102360D02*
Y1112520D01*
X1428750D01*
Y1102360D01*
X1418590D01*
X1420622Y1104392D02*
Y1110488D01*
X1426718D01*
Y1104392D01*
X1420622D01*
X1393190Y1145540D02*
Y1155700D01*
X1403350D01*
Y1145540D01*
X1393190D01*
X1395222Y1147572D02*
Y1153668D01*
X1401318D01*
Y1147572D01*
X1395222D01*
X1407160Y1191260D02*
Y1201420D01*
X1417320D01*
Y1191260D01*
X1407160D01*
X1409192Y1193292D02*
Y1199388D01*
X1415288D01*
Y1193292D01*
X1409192D01*
X1430020Y1191260D02*
Y1201420D01*
X1440180D01*
Y1191260D01*
X1430020D01*
X1432052Y1193292D02*
Y1199388D01*
X1438148D01*
Y1193292D01*
X1432052D01*
X1405890Y1163320D02*
Y1173480D01*
X1416050D01*
Y1163320D01*
X1405890D01*
X1407922Y1165352D02*
Y1171448D01*
X1414018D01*
Y1165352D01*
X1407922D01*
X1428750Y1172210D02*
Y1182370D01*
X1438910D01*
Y1172210D01*
X1428750D01*
X1430782Y1174242D02*
Y1180338D01*
X1436878D01*
Y1174242D01*
X1430782D01*
X1180874Y937260D02*
X1183414D01*
X1185954Y939800D01*
X1188494Y937260D01*
X1191034D01*
Y939800D01*
X1188494Y942340D01*
X1191034Y944880D01*
Y947420D01*
X1188494D01*
X1185954Y944880D01*
X1183414Y947420D01*
X1180874D01*
Y944880D01*
X1183414Y942340D01*
X1180874Y939800D01*
Y937260D01*
X1566110Y1191110D02*
Y1201270D01*
X1576270D01*
Y1191110D01*
X1566110D01*
X1568142Y1193142D02*
Y1199238D01*
X1574238D01*
Y1193142D01*
X1568142D01*
X1558730Y1161110D02*
Y1171270D01*
X1568889D01*
Y1161110D01*
X1558730D01*
X1560762Y1163142D02*
Y1169238D01*
X1566857D01*
Y1163142D01*
X1560762D01*
X1566110Y1131110D02*
Y1141270D01*
X1576270D01*
Y1131110D01*
X1566110D01*
X1568142Y1133142D02*
Y1139238D01*
X1574238D01*
Y1133142D01*
X1568142D01*
X1558730Y1101110D02*
Y1111270D01*
X1568889D01*
Y1101110D01*
X1558730D01*
X1560762Y1103142D02*
Y1109238D01*
X1566857D01*
Y1103142D01*
X1560762D01*
X1566110Y1071110D02*
Y1081270D01*
X1576270D01*
Y1071110D01*
X1566110D01*
X1568142Y1073142D02*
Y1079238D01*
X1574238D01*
Y1073142D01*
X1568142D01*
X1558730Y1041110D02*
Y1051270D01*
X1568889D01*
Y1041110D01*
X1558730D01*
X1560762Y1043142D02*
Y1049238D01*
X1566857D01*
Y1043142D01*
X1560762D01*
X1566110Y1011110D02*
Y1021270D01*
X1576270D01*
Y1011110D01*
X1566110D01*
X1568142Y1013142D02*
Y1019238D01*
X1574238D01*
Y1013142D01*
X1568142D01*
X1558730Y981110D02*
Y991270D01*
X1568889D01*
Y981110D01*
X1558730D01*
X1560762Y983142D02*
Y989238D01*
X1566857D01*
Y983142D01*
X1560762D01*
X1566110Y951110D02*
Y961270D01*
X1576270D01*
Y951110D01*
X1566110D01*
X1568142Y953142D02*
Y959238D01*
X1574238D01*
Y953142D01*
X1568142D01*
X1558730Y921110D02*
Y931270D01*
X1568889D01*
Y921110D01*
X1558730D01*
X1560762Y923142D02*
Y929238D01*
X1566857D01*
Y923142D01*
X1560762D01*
X1566110Y891110D02*
Y901270D01*
X1576270D01*
Y891110D01*
X1566110D01*
X1568142Y893142D02*
Y899238D01*
X1574238D01*
Y893142D01*
X1568142D01*
X1558730Y861110D02*
Y871270D01*
X1568889D01*
Y861110D01*
X1558730D01*
X1560762Y863142D02*
Y869238D01*
X1566857D01*
Y863142D01*
X1560762D01*
X1566110Y831110D02*
Y841270D01*
X1576270D01*
Y831110D01*
X1566110D01*
X1568142Y833142D02*
Y839238D01*
X1574238D01*
Y833142D01*
X1568142D01*
X1566110Y771110D02*
Y781270D01*
X1576270D01*
Y771110D01*
X1566110D01*
X1568142Y773142D02*
Y779238D01*
X1574238D01*
Y773142D01*
X1568142D01*
X1566110Y711110D02*
Y721270D01*
X1576270D01*
Y711110D01*
X1566110D01*
X1568142Y713142D02*
Y719238D01*
X1574238D01*
Y713142D01*
X1568142D01*
X1558730Y681110D02*
Y691270D01*
X1568889D01*
Y681110D01*
X1558730D01*
X1560762Y683142D02*
Y689238D01*
X1566857D01*
Y683142D01*
X1560762D01*
X1566110Y651110D02*
Y661270D01*
X1576270D01*
Y651110D01*
X1566110D01*
X1568142Y653142D02*
Y659238D01*
X1574238D01*
Y653142D01*
X1568142D01*
X1566110Y591110D02*
Y601270D01*
X1576270D01*
Y591110D01*
X1566110D01*
X1568142Y593142D02*
Y599238D01*
X1574238D01*
Y593142D01*
X1568142D01*
X1566110Y531110D02*
Y541270D01*
X1576270D01*
Y531110D01*
X1566110D01*
X1568142Y533142D02*
Y539238D01*
X1574238D01*
Y533142D01*
X1568142D01*
X1558730Y501110D02*
Y511270D01*
X1568889D01*
Y501110D01*
X1558730D01*
X1560762Y503142D02*
Y509238D01*
X1566857D01*
Y503142D01*
X1560762D01*
X1543730Y1191110D02*
Y1201270D01*
X1553889D01*
Y1191110D01*
X1543730D01*
X1545762Y1193142D02*
Y1199238D01*
X1551857D01*
Y1193142D01*
X1545762D01*
X1528730Y1161110D02*
Y1171270D01*
X1538889D01*
Y1161110D01*
X1528730D01*
X1530762Y1163142D02*
Y1169238D01*
X1536857D01*
Y1163142D01*
X1530762D01*
X1543730Y1131110D02*
Y1141270D01*
X1553889D01*
Y1131110D01*
X1543730D01*
X1545762Y1133142D02*
Y1139238D01*
X1551857D01*
Y1133142D01*
X1545762D01*
X1528730Y1101110D02*
Y1111270D01*
X1538889D01*
Y1101110D01*
X1528730D01*
X1530762Y1103142D02*
Y1109238D01*
X1536857D01*
Y1103142D01*
X1530762D01*
X1543730Y1071110D02*
Y1081270D01*
X1553889D01*
Y1071110D01*
X1543730D01*
X1545762Y1073142D02*
Y1079238D01*
X1551857D01*
Y1073142D01*
X1545762D01*
X1528730Y1041110D02*
Y1051270D01*
X1538889D01*
Y1041110D01*
X1528730D01*
X1530762Y1043142D02*
Y1049238D01*
X1536857D01*
Y1043142D01*
X1530762D01*
X1543730Y1011110D02*
Y1021270D01*
X1553889D01*
Y1011110D01*
X1543730D01*
X1545762Y1013142D02*
Y1019238D01*
X1551857D01*
Y1013142D01*
X1545762D01*
X1528730Y981110D02*
Y991270D01*
X1538889D01*
Y981110D01*
X1528730D01*
X1530762Y983142D02*
Y989238D01*
X1536857D01*
Y983142D01*
X1530762D01*
X1543730Y951110D02*
Y961270D01*
X1553889D01*
Y951110D01*
X1543730D01*
X1545762Y953142D02*
Y959238D01*
X1551857D01*
Y953142D01*
X1545762D01*
X1528730Y921110D02*
Y931270D01*
X1538889D01*
Y921110D01*
X1528730D01*
X1530762Y923142D02*
Y929238D01*
X1536857D01*
Y923142D01*
X1530762D01*
X1543730Y891110D02*
Y901270D01*
X1553889D01*
Y891110D01*
X1543730D01*
X1545762Y893142D02*
Y899238D01*
X1551857D01*
Y893142D01*
X1545762D01*
X1528730Y861110D02*
Y871270D01*
X1538889D01*
Y861110D01*
X1528730D01*
X1530762Y863142D02*
Y869238D01*
X1536857D01*
Y863142D01*
X1530762D01*
X1543730Y831110D02*
Y841270D01*
X1553889D01*
Y831110D01*
X1543730D01*
X1545762Y833142D02*
Y839238D01*
X1551857D01*
Y833142D01*
X1545762D01*
X1543730Y771110D02*
Y781270D01*
X1553889D01*
Y771110D01*
X1543730D01*
X1545762Y773142D02*
Y779238D01*
X1551857D01*
Y773142D01*
X1545762D01*
X1528730Y741110D02*
Y751270D01*
X1538889D01*
Y741110D01*
X1528730D01*
X1530762Y743142D02*
Y749238D01*
X1536857D01*
Y743142D01*
X1530762D01*
X1543730Y711110D02*
Y721270D01*
X1553889D01*
Y711110D01*
X1543730D01*
X1545762Y713142D02*
Y719238D01*
X1551857D01*
Y713142D01*
X1545762D01*
X1528730Y681110D02*
Y691270D01*
X1538889D01*
Y681110D01*
X1528730D01*
X1530762Y683142D02*
Y689238D01*
X1536857D01*
Y683142D01*
X1530762D01*
X1543730Y651110D02*
Y661270D01*
X1553889D01*
Y651110D01*
X1543730D01*
X1545762Y653142D02*
Y659238D01*
X1551857D01*
Y653142D01*
X1545762D01*
X1528730Y621110D02*
Y631270D01*
X1538889D01*
Y621110D01*
X1528730D01*
X1530762Y623142D02*
Y629238D01*
X1536857D01*
Y623142D01*
X1530762D01*
X1528730Y561110D02*
Y571270D01*
X1538889D01*
Y561110D01*
X1528730D01*
X1530762Y563142D02*
Y569238D01*
X1536857D01*
Y563142D01*
X1530762D01*
X1528730Y501110D02*
Y511270D01*
X1538889D01*
Y501110D01*
X1528730D01*
X1530762Y503142D02*
Y509238D01*
X1536857D01*
Y503142D01*
X1530762D01*
X1498730Y1161110D02*
Y1171270D01*
X1508889D01*
Y1161110D01*
X1498730D01*
X1500762Y1163142D02*
Y1169238D01*
X1506857D01*
Y1163142D01*
X1500762D01*
X1497460Y1107460D02*
Y1117620D01*
X1507619D01*
Y1107460D01*
X1497460D01*
X1499491Y1109492D02*
Y1115588D01*
X1505587D01*
Y1109492D01*
X1499491D01*
X1513730Y1011110D02*
Y1021270D01*
X1523889D01*
Y1011110D01*
X1513730D01*
X1515762Y1013142D02*
Y1019238D01*
X1521857D01*
Y1013142D01*
X1515762D01*
X1513730Y951110D02*
Y961270D01*
X1523889D01*
Y951110D01*
X1513730D01*
X1515762Y953142D02*
Y959238D01*
X1521857D01*
Y953142D01*
X1515762D01*
X1498730Y921110D02*
Y931270D01*
X1508889D01*
Y921110D01*
X1498730D01*
X1500762Y923142D02*
Y929238D01*
X1506857D01*
Y923142D01*
X1500762D01*
X1498730Y861110D02*
Y871270D01*
X1508889D01*
Y861110D01*
X1498730D01*
X1500762Y863142D02*
Y869238D01*
X1506857D01*
Y863142D01*
X1500762D01*
X1513730Y711110D02*
Y721270D01*
X1523889D01*
Y711110D01*
X1513730D01*
X1515762Y713142D02*
Y719238D01*
X1521857D01*
Y713142D01*
X1515762D01*
X1513730Y651110D02*
Y661270D01*
X1523889D01*
Y651110D01*
X1513730D01*
X1515762Y653142D02*
Y659238D01*
X1521857D01*
Y653142D01*
X1515762D01*
X1513730Y591110D02*
Y601270D01*
X1523889D01*
Y591110D01*
X1513730D01*
X1515762Y593142D02*
Y599238D01*
X1521857D01*
Y593142D01*
X1515762D01*
X1513730Y531110D02*
Y541270D01*
X1523889D01*
Y531110D01*
X1513730D01*
X1515762Y533142D02*
Y539238D01*
X1521857D01*
Y533142D01*
X1515762D01*
X1498730Y501110D02*
Y511270D01*
X1508889D01*
Y501110D01*
X1498730D01*
X1500762Y503142D02*
Y509238D01*
X1506857D01*
Y503142D01*
X1500762D01*
X1468730Y1161110D02*
Y1171270D01*
X1478889D01*
Y1161110D01*
X1468730D01*
X1470762Y1163142D02*
Y1169238D01*
X1476857D01*
Y1163142D01*
X1470762D01*
X1468730Y1101110D02*
Y1111270D01*
X1478889D01*
Y1101110D01*
X1468730D01*
X1470762Y1103142D02*
Y1109238D01*
X1476857D01*
Y1103142D01*
X1470762D01*
X1483730Y1071110D02*
Y1081270D01*
X1493889D01*
Y1071110D01*
X1483730D01*
X1485762Y1073142D02*
Y1079238D01*
X1491857D01*
Y1073142D01*
X1485762D01*
X1468730Y1041110D02*
Y1051270D01*
X1478889D01*
Y1041110D01*
X1468730D01*
X1470762Y1043142D02*
Y1049238D01*
X1476857D01*
Y1043142D01*
X1470762D01*
X1483730Y1011110D02*
Y1021270D01*
X1493889D01*
Y1011110D01*
X1483730D01*
X1485762Y1013142D02*
Y1019238D01*
X1491857D01*
Y1013142D01*
X1485762D01*
X1483730Y951110D02*
Y961270D01*
X1493889D01*
Y951110D01*
X1483730D01*
X1485762Y953142D02*
Y959238D01*
X1491857D01*
Y953142D01*
X1485762D01*
X1468730Y861110D02*
Y871270D01*
X1478889D01*
Y861110D01*
X1468730D01*
X1470762Y863142D02*
Y869238D01*
X1476857D01*
Y863142D01*
X1470762D01*
X1468730Y741110D02*
Y751270D01*
X1478889D01*
Y741110D01*
X1468730D01*
X1470762Y743142D02*
Y749238D01*
X1476857D01*
Y743142D01*
X1470762D01*
X1483730Y711110D02*
Y721270D01*
X1493889D01*
Y711110D01*
X1483730D01*
X1485762Y713142D02*
Y719238D01*
X1491857D01*
Y713142D01*
X1485762D01*
X1468730Y681110D02*
Y691270D01*
X1478889D01*
Y681110D01*
X1468730D01*
X1470762Y683142D02*
Y689238D01*
X1476857D01*
Y683142D01*
X1470762D01*
X1483730Y651110D02*
Y661270D01*
X1493889D01*
Y651110D01*
X1483730D01*
X1485762Y653142D02*
Y659238D01*
X1491857D01*
Y653142D01*
X1485762D01*
X1468730Y621110D02*
Y631270D01*
X1478889D01*
Y621110D01*
X1468730D01*
X1470762Y623142D02*
Y629238D01*
X1476857D01*
Y623142D01*
X1470762D01*
X1483730Y591110D02*
Y601270D01*
X1493889D01*
Y591110D01*
X1483730D01*
X1485762Y593142D02*
Y599238D01*
X1491857D01*
Y593142D01*
X1485762D01*
X1468730Y561110D02*
Y571270D01*
X1478889D01*
Y561110D01*
X1468730D01*
X1470762Y563142D02*
Y569238D01*
X1476857D01*
Y563142D01*
X1470762D01*
X1483730Y531110D02*
Y541270D01*
X1493889D01*
Y531110D01*
X1483730D01*
X1485762Y533142D02*
Y539238D01*
X1491857D01*
Y533142D01*
X1485762D01*
X1468730Y501110D02*
Y511270D01*
X1478889D01*
Y501110D01*
X1468730D01*
X1470762Y503142D02*
Y509238D01*
X1476857D01*
Y503142D01*
X1470762D01*
X1453730Y1191110D02*
Y1201270D01*
X1463890D01*
Y1191110D01*
X1453730D01*
X1455762Y1193142D02*
Y1199238D01*
X1461858D01*
Y1193142D01*
X1455762D01*
X1453730Y1131110D02*
Y1141270D01*
X1463890D01*
Y1131110D01*
X1453730D01*
X1455762Y1133142D02*
Y1139238D01*
X1461858D01*
Y1133142D01*
X1455762D01*
X1453730Y1011110D02*
Y1021270D01*
X1463890D01*
Y1011110D01*
X1453730D01*
X1455762Y1013142D02*
Y1019238D01*
X1461858D01*
Y1013142D01*
X1455762D01*
X1438730Y861110D02*
Y871270D01*
X1448890D01*
Y861110D01*
X1438730D01*
X1440762Y863142D02*
Y869238D01*
X1446858D01*
Y863142D01*
X1440762D01*
X1453730Y771110D02*
Y781270D01*
X1463890D01*
Y771110D01*
X1453730D01*
X1455762Y773142D02*
Y779238D01*
X1461858D01*
Y773142D01*
X1455762D01*
X1453730Y711110D02*
Y721270D01*
X1463890D01*
Y711110D01*
X1453730D01*
X1455762Y713142D02*
Y719238D01*
X1461858D01*
Y713142D01*
X1455762D01*
X1438730Y681110D02*
Y691270D01*
X1448890D01*
Y681110D01*
X1438730D01*
X1440762Y683142D02*
Y689238D01*
X1446858D01*
Y683142D01*
X1440762D01*
X1453730Y651110D02*
Y661270D01*
X1463890D01*
Y651110D01*
X1453730D01*
X1455762Y653142D02*
Y659238D01*
X1461858D01*
Y653142D01*
X1455762D01*
X1438730Y501110D02*
Y511270D01*
X1448890D01*
Y501110D01*
X1438730D01*
X1440762Y503142D02*
Y509238D01*
X1446858D01*
Y503142D01*
X1440762D01*
X1423730Y651110D02*
Y661270D01*
X1433890D01*
Y651110D01*
X1423730D01*
X1425762Y653142D02*
Y659238D01*
X1431858D01*
Y653142D01*
X1425762D01*
X1423730Y591110D02*
Y601270D01*
X1433890D01*
Y591110D01*
X1423730D01*
X1425762Y593142D02*
Y599238D01*
X1431858D01*
Y593142D01*
X1425762D01*
X1423730Y531110D02*
Y541270D01*
X1433890D01*
Y531110D01*
X1423730D01*
X1425762Y533142D02*
Y539238D01*
X1431858D01*
Y533142D01*
X1425762D01*
X1408730Y501110D02*
Y511270D01*
X1418890D01*
Y501110D01*
X1408730D01*
X1410762Y503142D02*
Y509238D01*
X1416858D01*
Y503142D01*
X1410762D01*
X1393730Y1071110D02*
Y1081270D01*
X1403890D01*
Y1071110D01*
X1393730D01*
X1395762Y1073142D02*
Y1079238D01*
X1401858D01*
Y1073142D01*
X1395762D01*
X1378730Y921110D02*
Y931270D01*
X1388890D01*
Y921110D01*
X1378730D01*
X1380762Y923142D02*
Y929238D01*
X1386858D01*
Y923142D01*
X1380762D01*
X1393730Y831110D02*
Y841270D01*
X1403890D01*
Y831110D01*
X1393730D01*
X1395762Y833142D02*
Y839238D01*
X1401858D01*
Y833142D01*
X1395762D01*
X1378730Y501110D02*
Y511270D01*
X1388890D01*
Y501110D01*
X1378730D01*
X1380762Y503142D02*
Y509238D01*
X1386858D01*
Y503142D01*
X1380762D01*
X1363730Y1191110D02*
Y1201270D01*
X1373890D01*
Y1191110D01*
X1363730D01*
X1365762Y1193142D02*
Y1199238D01*
X1371858D01*
Y1193142D01*
X1365762D01*
X1363730Y1071110D02*
Y1081270D01*
X1373890D01*
Y1071110D01*
X1363730D01*
X1365762Y1073142D02*
Y1079238D01*
X1371858D01*
Y1073142D01*
X1365762D01*
X1348730Y801110D02*
Y811270D01*
X1358890D01*
Y801110D01*
X1348730D01*
X1350762Y803142D02*
Y809238D01*
X1356858D01*
Y803142D01*
X1350762D01*
X1348730Y501110D02*
Y511270D01*
X1358890D01*
Y501110D01*
X1348730D01*
X1350762Y503142D02*
Y509238D01*
X1356858D01*
Y503142D01*
X1350762D01*
X1318730Y1041110D02*
Y1051270D01*
X1328890D01*
Y1041110D01*
X1318730D01*
X1320762Y1043142D02*
Y1049238D01*
X1326858D01*
Y1043142D01*
X1320762D01*
X1318730Y921110D02*
Y931270D01*
X1328890D01*
Y921110D01*
X1318730D01*
X1320762Y923142D02*
Y929238D01*
X1326858D01*
Y923142D01*
X1320762D01*
X1333730Y891110D02*
Y901270D01*
X1343890D01*
Y891110D01*
X1333730D01*
X1335762Y893142D02*
Y899238D01*
X1341858D01*
Y893142D01*
X1335762D01*
X1333730Y831110D02*
Y841270D01*
X1343890D01*
Y831110D01*
X1333730D01*
X1335762Y833142D02*
Y839238D01*
X1341858D01*
Y833142D01*
X1335762D01*
X1318730Y501110D02*
Y511270D01*
X1328890D01*
Y501110D01*
X1318730D01*
X1320762Y503142D02*
Y509238D01*
X1326858D01*
Y503142D01*
X1320762D01*
X1303730Y1131110D02*
Y1141270D01*
X1313890D01*
Y1131110D01*
X1303730D01*
X1305762Y1133142D02*
Y1139238D01*
X1311858D01*
Y1133142D01*
X1305762D01*
X1288730Y1101110D02*
Y1111270D01*
X1298890D01*
Y1101110D01*
X1288730D01*
X1290762Y1103142D02*
Y1109238D01*
X1296858D01*
Y1103142D01*
X1290762D01*
X1303730Y1011110D02*
Y1021270D01*
X1313890D01*
Y1011110D01*
X1303730D01*
X1305762Y1013142D02*
Y1019238D01*
X1311858D01*
Y1013142D01*
X1305762D01*
X1288730Y921110D02*
Y931270D01*
X1298890D01*
Y921110D01*
X1288730D01*
X1290762Y923142D02*
Y929238D01*
X1296858D01*
Y923142D01*
X1290762D01*
X1303730Y891110D02*
Y901270D01*
X1313890D01*
Y891110D01*
X1303730D01*
X1305762Y893142D02*
Y899238D01*
X1311858D01*
Y893142D01*
X1305762D01*
X1288730Y621110D02*
Y631270D01*
X1298890D01*
Y621110D01*
X1288730D01*
X1290762Y623142D02*
Y629238D01*
X1296858D01*
Y623142D01*
X1290762D01*
X1288730Y501110D02*
Y511270D01*
X1298890D01*
Y501110D01*
X1288730D01*
X1290762Y503142D02*
Y509238D01*
X1296858D01*
Y503142D01*
X1290762D01*
X1273730Y1131110D02*
Y1141270D01*
X1283890D01*
Y1131110D01*
X1273730D01*
X1275762Y1133142D02*
Y1139238D01*
X1281858D01*
Y1133142D01*
X1275762D01*
X1258730Y1101110D02*
Y1111270D01*
X1268890D01*
Y1101110D01*
X1258730D01*
X1260762Y1103142D02*
Y1109238D01*
X1266858D01*
Y1103142D01*
X1260762D01*
X1273730Y1071110D02*
Y1081270D01*
X1283890D01*
Y1071110D01*
X1273730D01*
X1275762Y1073142D02*
Y1079238D01*
X1281858D01*
Y1073142D01*
X1275762D01*
X1258730Y1041110D02*
Y1051270D01*
X1268890D01*
Y1041110D01*
X1258730D01*
X1260762Y1043142D02*
Y1049238D01*
X1266858D01*
Y1043142D01*
X1260762D01*
X1258730Y981110D02*
Y991270D01*
X1268890D01*
Y981110D01*
X1258730D01*
X1260762Y983142D02*
Y989238D01*
X1266858D01*
Y983142D01*
X1260762D01*
X1273730Y891110D02*
Y901270D01*
X1283890D01*
Y891110D01*
X1273730D01*
X1275762Y893142D02*
Y899238D01*
X1281858D01*
Y893142D01*
X1275762D01*
X1273730Y651110D02*
Y661270D01*
X1283890D01*
Y651110D01*
X1273730D01*
X1275762Y653142D02*
Y659238D01*
X1281858D01*
Y653142D01*
X1275762D01*
X1273730Y591110D02*
Y601270D01*
X1283890D01*
Y591110D01*
X1273730D01*
X1275762Y593142D02*
Y599238D01*
X1281858D01*
Y593142D01*
X1275762D01*
X1258730Y561110D02*
Y571270D01*
X1268890D01*
Y561110D01*
X1258730D01*
X1260762Y563142D02*
Y569238D01*
X1266858D01*
Y563142D01*
X1260762D01*
X1258730Y501110D02*
Y511270D01*
X1268890D01*
Y501110D01*
X1258730D01*
X1260762Y503142D02*
Y509238D01*
X1266858D01*
Y503142D01*
X1260762D01*
X1243730Y1131110D02*
Y1141270D01*
X1253890D01*
Y1131110D01*
X1243730D01*
X1245762Y1133142D02*
Y1139238D01*
X1251858D01*
Y1133142D01*
X1245762D01*
X1228730Y1101110D02*
Y1111270D01*
X1238890D01*
Y1101110D01*
X1228730D01*
X1230762Y1103142D02*
Y1109238D01*
X1236858D01*
Y1103142D01*
X1230762D01*
X1228730Y1041110D02*
Y1051270D01*
X1238890D01*
Y1041110D01*
X1228730D01*
X1230762Y1043142D02*
Y1049238D01*
X1236858D01*
Y1043142D01*
X1230762D01*
X1243730Y1011110D02*
Y1021270D01*
X1253890D01*
Y1011110D01*
X1243730D01*
X1245762Y1013142D02*
Y1019238D01*
X1251858D01*
Y1013142D01*
X1245762D01*
X1228730Y861110D02*
Y871270D01*
X1238890D01*
Y861110D01*
X1228730D01*
X1230762Y863142D02*
Y869238D01*
X1236858D01*
Y863142D01*
X1230762D01*
X1243730Y651110D02*
Y661270D01*
X1253890D01*
Y651110D01*
X1243730D01*
X1245762Y653142D02*
Y659238D01*
X1251858D01*
Y653142D01*
X1245762D01*
X1243730Y591110D02*
Y601270D01*
X1253890D01*
Y591110D01*
X1243730D01*
X1245762Y593142D02*
Y599238D01*
X1251858D01*
Y593142D01*
X1245762D01*
X1228730Y561110D02*
Y571270D01*
X1238890D01*
Y561110D01*
X1228730D01*
X1230762Y563142D02*
Y569238D01*
X1236858D01*
Y563142D01*
X1230762D01*
X1228730Y501110D02*
Y511270D01*
X1238890D01*
Y501110D01*
X1228730D01*
X1230762Y503142D02*
Y509238D01*
X1236858D01*
Y503142D01*
X1230762D01*
X1213730Y1131110D02*
Y1141270D01*
X1223890D01*
Y1131110D01*
X1213730D01*
X1215762Y1133142D02*
Y1139238D01*
X1221858D01*
Y1133142D01*
X1215762D01*
X1213730Y1071110D02*
Y1081270D01*
X1223890D01*
Y1071110D01*
X1213730D01*
X1215762Y1073142D02*
Y1079238D01*
X1221858D01*
Y1073142D01*
X1215762D01*
X1213730Y1011110D02*
Y1021270D01*
X1223890D01*
Y1011110D01*
X1213730D01*
X1215762Y1013142D02*
Y1019238D01*
X1221858D01*
Y1013142D01*
X1215762D01*
X1198730Y861110D02*
Y871270D01*
X1208890D01*
Y861110D01*
X1198730D01*
X1200762Y863142D02*
Y869238D01*
X1206858D01*
Y863142D01*
X1200762D01*
X1213730Y771110D02*
Y781270D01*
X1223890D01*
Y771110D01*
X1213730D01*
X1215762Y773142D02*
Y779238D01*
X1221858D01*
Y773142D01*
X1215762D01*
X1198730Y681110D02*
Y691270D01*
X1208890D01*
Y681110D01*
X1198730D01*
X1200762Y683142D02*
Y689238D01*
X1206858D01*
Y683142D01*
X1200762D01*
X1213730Y591110D02*
Y601270D01*
X1223890D01*
Y591110D01*
X1213730D01*
X1215762Y593142D02*
Y599238D01*
X1221858D01*
Y593142D01*
X1215762D01*
X1198730Y561110D02*
Y571270D01*
X1208890D01*
Y561110D01*
X1198730D01*
X1200762Y563142D02*
Y569238D01*
X1206858D01*
Y563142D01*
X1200762D01*
X1213730Y531110D02*
Y541270D01*
X1223890D01*
Y531110D01*
X1213730D01*
X1215762Y533142D02*
Y539238D01*
X1221858D01*
Y533142D01*
X1215762D01*
X1198730Y501110D02*
Y511270D01*
X1208890D01*
Y501110D01*
X1198730D01*
X1200762Y503142D02*
Y509238D01*
X1206858D01*
Y503142D01*
X1200762D01*
X1183730Y1131110D02*
Y1141270D01*
X1193890D01*
Y1131110D01*
X1183730D01*
X1185762Y1133142D02*
Y1139238D01*
X1191858D01*
Y1133142D01*
X1185762D01*
X1183730Y1071110D02*
Y1081270D01*
X1193890D01*
Y1071110D01*
X1183730D01*
X1185762Y1073142D02*
Y1079238D01*
X1191858D01*
Y1073142D01*
X1185762D01*
X1183730Y891110D02*
Y901270D01*
X1193890D01*
Y891110D01*
X1183730D01*
X1185762Y893142D02*
Y899238D01*
X1191858D01*
Y893142D01*
X1185762D01*
X1183730Y771110D02*
Y781270D01*
X1193890D01*
Y771110D01*
X1183730D01*
X1185762Y773142D02*
Y779238D01*
X1191858D01*
Y773142D01*
X1185762D01*
X1168730Y741110D02*
Y751270D01*
X1178890D01*
Y741110D01*
X1168730D01*
X1170762Y743142D02*
Y749238D01*
X1176858D01*
Y743142D01*
X1170762D01*
X1183730Y711110D02*
Y721270D01*
X1193890D01*
Y711110D01*
X1183730D01*
X1185762Y713142D02*
Y719238D01*
X1191858D01*
Y713142D01*
X1185762D01*
X1168730Y681110D02*
Y691270D01*
X1178890D01*
Y681110D01*
X1168730D01*
X1170762Y683142D02*
Y689238D01*
X1176858D01*
Y683142D01*
X1170762D01*
X1168730Y621110D02*
Y631270D01*
X1178890D01*
Y621110D01*
X1168730D01*
X1170762Y623142D02*
Y629238D01*
X1176858D01*
Y623142D01*
X1170762D01*
X1183730Y591110D02*
Y601270D01*
X1193890D01*
Y591110D01*
X1183730D01*
X1185762Y593142D02*
Y599238D01*
X1191858D01*
Y593142D01*
X1185762D01*
X1168730Y561110D02*
Y571270D01*
X1178890D01*
Y561110D01*
X1168730D01*
X1170762Y563142D02*
Y569238D01*
X1176858D01*
Y563142D01*
X1170762D01*
X1168730Y501110D02*
Y511270D01*
X1178890D01*
Y501110D01*
X1168730D01*
X1170762Y503142D02*
Y509238D01*
X1176858D01*
Y503142D01*
X1170762D01*
X1138730Y1101110D02*
Y1111270D01*
X1148890D01*
Y1101110D01*
X1138730D01*
X1140762Y1103142D02*
Y1109238D01*
X1146858D01*
Y1103142D01*
X1140762D01*
X1153730Y951110D02*
Y961270D01*
X1163890D01*
Y951110D01*
X1153730D01*
X1155762Y953142D02*
Y959238D01*
X1161858D01*
Y953142D01*
X1155762D01*
X1138730Y861110D02*
Y871270D01*
X1148890D01*
Y861110D01*
X1138730D01*
X1140762Y863142D02*
Y869238D01*
X1146858D01*
Y863142D01*
X1140762D01*
X1153730Y771110D02*
Y781270D01*
X1163890D01*
Y771110D01*
X1153730D01*
X1155762Y773142D02*
Y779238D01*
X1161858D01*
Y773142D01*
X1155762D01*
X1153730Y711110D02*
Y721270D01*
X1163890D01*
Y711110D01*
X1153730D01*
X1155762Y713142D02*
Y719238D01*
X1161858D01*
Y713142D01*
X1155762D01*
X1138730Y681110D02*
Y691270D01*
X1148890D01*
Y681110D01*
X1138730D01*
X1140762Y683142D02*
Y689238D01*
X1146858D01*
Y683142D01*
X1140762D01*
X1153730Y591110D02*
Y601270D01*
X1163890D01*
Y591110D01*
X1153730D01*
X1155762Y593142D02*
Y599238D01*
X1161858D01*
Y593142D01*
X1155762D01*
X1138730Y561110D02*
Y571270D01*
X1148890D01*
Y561110D01*
X1138730D01*
X1140762Y563142D02*
Y569238D01*
X1146858D01*
Y563142D01*
X1140762D01*
X1153730Y531110D02*
Y541270D01*
X1163890D01*
Y531110D01*
X1153730D01*
X1155762Y533142D02*
Y539238D01*
X1161858D01*
Y533142D01*
X1155762D01*
X1138730Y501110D02*
Y511270D01*
X1148890D01*
Y501110D01*
X1138730D01*
X1140762Y503142D02*
Y509238D01*
X1146858D01*
Y503142D01*
X1140762D01*
X1123730Y1191110D02*
Y1201270D01*
X1133890D01*
Y1191110D01*
X1123730D01*
X1125762Y1193142D02*
Y1199238D01*
X1131858D01*
Y1193142D01*
X1125762D01*
X1108730Y1161110D02*
Y1171270D01*
X1118890D01*
Y1161110D01*
X1108730D01*
X1110762Y1163142D02*
Y1169238D01*
X1116858D01*
Y1163142D01*
X1110762D01*
X1108730Y921110D02*
Y931270D01*
X1118890D01*
Y921110D01*
X1108730D01*
X1110762Y923142D02*
Y929238D01*
X1116858D01*
Y923142D01*
X1110762D01*
X1108730Y861110D02*
Y871270D01*
X1118890D01*
Y861110D01*
X1108730D01*
X1110762Y863142D02*
Y869238D01*
X1116858D01*
Y863142D01*
X1110762D01*
X1108730Y621110D02*
Y631270D01*
X1118890D01*
Y621110D01*
X1108730D01*
X1110762Y623142D02*
Y629238D01*
X1116858D01*
Y623142D01*
X1110762D01*
X1123730Y591110D02*
Y601270D01*
X1133890D01*
Y591110D01*
X1123730D01*
X1125762Y593142D02*
Y599238D01*
X1131858D01*
Y593142D01*
X1125762D01*
X1108730Y561110D02*
Y571270D01*
X1118890D01*
Y561110D01*
X1108730D01*
X1110762Y563142D02*
Y569238D01*
X1116858D01*
Y563142D01*
X1110762D01*
X1108730Y501110D02*
Y511270D01*
X1118890D01*
Y501110D01*
X1108730D01*
X1110762Y503142D02*
Y509238D01*
X1116858D01*
Y503142D01*
X1110762D01*
X1093730Y1011110D02*
Y1021270D01*
X1103890D01*
Y1011110D01*
X1093730D01*
X1095762Y1013142D02*
Y1019238D01*
X1101858D01*
Y1013142D01*
X1095762D01*
X1078730Y861110D02*
Y871270D01*
X1088890D01*
Y861110D01*
X1078730D01*
X1080762Y863142D02*
Y869238D01*
X1086858D01*
Y863142D01*
X1080762D01*
X1078730Y741110D02*
Y751270D01*
X1088890D01*
Y741110D01*
X1078730D01*
X1080762Y743142D02*
Y749238D01*
X1086858D01*
Y743142D01*
X1080762D01*
X1078730Y621110D02*
Y631270D01*
X1088890D01*
Y621110D01*
X1078730D01*
X1080762Y623142D02*
Y629238D01*
X1086858D01*
Y623142D01*
X1080762D01*
X1093730Y591110D02*
Y601270D01*
X1103890D01*
Y591110D01*
X1093730D01*
X1095762Y593142D02*
Y599238D01*
X1101858D01*
Y593142D01*
X1095762D01*
X1078730Y561110D02*
Y571270D01*
X1088890D01*
Y561110D01*
X1078730D01*
X1080762Y563142D02*
Y569238D01*
X1086858D01*
Y563142D01*
X1080762D01*
X1093730Y531110D02*
Y541270D01*
X1103890D01*
Y531110D01*
X1093730D01*
X1095762Y533142D02*
Y539238D01*
X1101858D01*
Y533142D01*
X1095762D01*
X1078730Y501110D02*
Y511270D01*
X1088890D01*
Y501110D01*
X1078730D01*
X1080762Y503142D02*
Y509238D01*
X1086858D01*
Y503142D01*
X1080762D01*
X1048730Y861110D02*
Y871270D01*
X1058890D01*
Y861110D01*
X1048730D01*
X1050762Y863142D02*
Y869238D01*
X1056858D01*
Y863142D01*
X1050762D01*
X1063730Y771110D02*
Y781270D01*
X1073890D01*
Y771110D01*
X1063730D01*
X1065762Y773142D02*
Y779238D01*
X1071858D01*
Y773142D01*
X1065762D01*
X1063730Y711110D02*
Y721270D01*
X1073890D01*
Y711110D01*
X1063730D01*
X1065762Y713142D02*
Y719238D01*
X1071858D01*
Y713142D01*
X1065762D01*
X1048730Y681110D02*
Y691270D01*
X1058890D01*
Y681110D01*
X1048730D01*
X1050762Y683142D02*
Y689238D01*
X1056858D01*
Y683142D01*
X1050762D01*
X1063730Y651110D02*
Y661270D01*
X1073890D01*
Y651110D01*
X1063730D01*
X1065762Y653142D02*
Y659238D01*
X1071858D01*
Y653142D01*
X1065762D01*
X1063730Y591110D02*
Y601270D01*
X1073890D01*
Y591110D01*
X1063730D01*
X1065762Y593142D02*
Y599238D01*
X1071858D01*
Y593142D01*
X1065762D01*
X1063730Y531110D02*
Y541270D01*
X1073890D01*
Y531110D01*
X1063730D01*
X1065762Y533142D02*
Y539238D01*
X1071858D01*
Y533142D01*
X1065762D01*
X1048730Y501110D02*
Y511270D01*
X1058890D01*
Y501110D01*
X1048730D01*
X1050762Y503142D02*
Y509238D01*
X1056858D01*
Y503142D01*
X1050762D01*
X1018730Y1101110D02*
Y1111270D01*
X1028890D01*
Y1101110D01*
X1018730D01*
X1020762Y1103142D02*
Y1109238D01*
X1026858D01*
Y1103142D01*
X1020762D01*
X1033730Y1071110D02*
Y1081270D01*
X1043890D01*
Y1071110D01*
X1033730D01*
X1035762Y1073142D02*
Y1079238D01*
X1041858D01*
Y1073142D01*
X1035762D01*
X1018730Y1041110D02*
Y1051270D01*
X1028890D01*
Y1041110D01*
X1018730D01*
X1020762Y1043142D02*
Y1049238D01*
X1026858D01*
Y1043142D01*
X1020762D01*
X1033730Y1011110D02*
Y1021270D01*
X1043890D01*
Y1011110D01*
X1033730D01*
X1035762Y1013142D02*
Y1019238D01*
X1041858D01*
Y1013142D01*
X1035762D01*
X1033730Y771110D02*
Y781270D01*
X1043890D01*
Y771110D01*
X1033730D01*
X1035762Y773142D02*
Y779238D01*
X1041858D01*
Y773142D01*
X1035762D01*
X1018730Y741110D02*
Y751270D01*
X1028890D01*
Y741110D01*
X1018730D01*
X1020762Y743142D02*
Y749238D01*
X1026858D01*
Y743142D01*
X1020762D01*
X1033730Y711110D02*
Y721270D01*
X1043890D01*
Y711110D01*
X1033730D01*
X1035762Y713142D02*
Y719238D01*
X1041858D01*
Y713142D01*
X1035762D01*
X1018730Y681110D02*
Y691270D01*
X1028890D01*
Y681110D01*
X1018730D01*
X1020762Y683142D02*
Y689238D01*
X1026858D01*
Y683142D01*
X1020762D01*
X1033730Y651110D02*
Y661270D01*
X1043890D01*
Y651110D01*
X1033730D01*
X1035762Y653142D02*
Y659238D01*
X1041858D01*
Y653142D01*
X1035762D01*
X1018730Y621110D02*
Y631270D01*
X1028890D01*
Y621110D01*
X1018730D01*
X1020762Y623142D02*
Y629238D01*
X1026858D01*
Y623142D01*
X1020762D01*
X1018730Y561110D02*
Y571270D01*
X1028890D01*
Y561110D01*
X1018730D01*
X1020762Y563142D02*
Y569238D01*
X1026858D01*
Y563142D01*
X1020762D01*
X1018730Y501110D02*
Y511270D01*
X1028890D01*
Y501110D01*
X1018730D01*
X1020762Y503142D02*
Y509238D01*
X1026858D01*
Y503142D01*
X1020762D01*
X1003730Y1191110D02*
Y1201270D01*
X1013890D01*
Y1191110D01*
X1003730D01*
X1005762Y1193142D02*
Y1199238D01*
X1011858D01*
Y1193142D01*
X1005762D01*
X988730Y1161110D02*
Y1171270D01*
X998890D01*
Y1161110D01*
X988730D01*
X990762Y1163142D02*
Y1169238D01*
X996858D01*
Y1163142D01*
X990762D01*
X988730Y1101110D02*
Y1111270D01*
X998890D01*
Y1101110D01*
X988730D01*
X990762Y1103142D02*
Y1109238D01*
X996858D01*
Y1103142D01*
X990762D01*
X988730Y1041110D02*
Y1051270D01*
X998890D01*
Y1041110D01*
X988730D01*
X990762Y1043142D02*
Y1049238D01*
X996858D01*
Y1043142D01*
X990762D01*
X1003730Y1011110D02*
Y1021270D01*
X1013890D01*
Y1011110D01*
X1003730D01*
X1005762Y1013142D02*
Y1019238D01*
X1011858D01*
Y1013142D01*
X1005762D01*
X1003730Y951110D02*
Y961270D01*
X1013890D01*
Y951110D01*
X1003730D01*
X1005762Y953142D02*
Y959238D01*
X1011858D01*
Y953142D01*
X1005762D01*
X1003730Y891110D02*
Y901270D01*
X1013890D01*
Y891110D01*
X1003730D01*
X1005762Y893142D02*
Y899238D01*
X1011858D01*
Y893142D01*
X1005762D01*
X988730Y861110D02*
Y871270D01*
X998890D01*
Y861110D01*
X988730D01*
X990762Y863142D02*
Y869238D01*
X996858D01*
Y863142D01*
X990762D01*
X1003730Y771110D02*
Y781270D01*
X1013890D01*
Y771110D01*
X1003730D01*
X1005762Y773142D02*
Y779238D01*
X1011858D01*
Y773142D01*
X1005762D01*
X1003730Y711110D02*
Y721270D01*
X1013890D01*
Y711110D01*
X1003730D01*
X1005762Y713142D02*
Y719238D01*
X1011858D01*
Y713142D01*
X1005762D01*
X1003730Y651110D02*
Y661270D01*
X1013890D01*
Y651110D01*
X1003730D01*
X1005762Y653142D02*
Y659238D01*
X1011858D01*
Y653142D01*
X1005762D01*
X1003730Y591110D02*
Y601270D01*
X1013890D01*
Y591110D01*
X1003730D01*
X1005762Y593142D02*
Y599238D01*
X1011858D01*
Y593142D01*
X1005762D01*
X1003730Y531110D02*
Y541270D01*
X1013890D01*
Y531110D01*
X1003730D01*
X1005762Y533142D02*
Y539238D01*
X1011858D01*
Y533142D01*
X1005762D01*
X988730Y501110D02*
Y511270D01*
X998890D01*
Y501110D01*
X988730D01*
X990762Y503142D02*
Y509238D01*
X996858D01*
Y503142D01*
X990762D01*
X958730Y1161110D02*
Y1171270D01*
X968890D01*
Y1161110D01*
X958730D01*
X960762Y1163142D02*
Y1169238D01*
X966858D01*
Y1163142D01*
X960762D01*
X958730Y1101110D02*
Y1111270D01*
X968890D01*
Y1101110D01*
X958730D01*
X960762Y1103142D02*
Y1109238D01*
X966858D01*
Y1103142D01*
X960762D01*
X958730Y1041110D02*
Y1051270D01*
X968890D01*
Y1041110D01*
X958730D01*
X960762Y1043142D02*
Y1049238D01*
X966858D01*
Y1043142D01*
X960762D01*
X973730Y1011110D02*
Y1021270D01*
X983890D01*
Y1011110D01*
X973730D01*
X975762Y1013142D02*
Y1019238D01*
X981858D01*
Y1013142D01*
X975762D01*
X973730Y951110D02*
Y961270D01*
X983890D01*
Y951110D01*
X973730D01*
X975762Y953142D02*
Y959238D01*
X981858D01*
Y953142D01*
X975762D01*
X958730Y861110D02*
Y871270D01*
X968890D01*
Y861110D01*
X958730D01*
X960762Y863142D02*
Y869238D01*
X966858D01*
Y863142D01*
X960762D01*
X958730Y741110D02*
Y751270D01*
X968890D01*
Y741110D01*
X958730D01*
X960762Y743142D02*
Y749238D01*
X966858D01*
Y743142D01*
X960762D01*
X973730Y711110D02*
Y721270D01*
X983890D01*
Y711110D01*
X973730D01*
X975762Y713142D02*
Y719238D01*
X981858D01*
Y713142D01*
X975762D01*
X958730Y681110D02*
Y691270D01*
X968890D01*
Y681110D01*
X958730D01*
X960762Y683142D02*
Y689238D01*
X966858D01*
Y683142D01*
X960762D01*
X973730Y651110D02*
Y661270D01*
X983890D01*
Y651110D01*
X973730D01*
X975762Y653142D02*
Y659238D01*
X981858D01*
Y653142D01*
X975762D01*
X958730Y621110D02*
Y631270D01*
X968890D01*
Y621110D01*
X958730D01*
X960762Y623142D02*
Y629238D01*
X966858D01*
Y623142D01*
X960762D01*
X973730Y591110D02*
Y601270D01*
X983890D01*
Y591110D01*
X973730D01*
X975762Y593142D02*
Y599238D01*
X981858D01*
Y593142D01*
X975762D01*
X958730Y561110D02*
Y571270D01*
X968890D01*
Y561110D01*
X958730D01*
X960762Y563142D02*
Y569238D01*
X966858D01*
Y563142D01*
X960762D01*
X973730Y531110D02*
Y541270D01*
X983890D01*
Y531110D01*
X973730D01*
X975762Y533142D02*
Y539238D01*
X981858D01*
Y533142D01*
X975762D01*
X958730Y501110D02*
Y511270D01*
X968890D01*
Y501110D01*
X958730D01*
X960762Y503142D02*
Y509238D01*
X966858D01*
Y503142D01*
X960762D01*
X943730Y1191110D02*
Y1201270D01*
X953890D01*
Y1191110D01*
X943730D01*
X945762Y1193142D02*
Y1199238D01*
X951858D01*
Y1193142D01*
X945762D01*
X928730Y1161110D02*
Y1171270D01*
X938890D01*
Y1161110D01*
X928730D01*
X930762Y1163142D02*
Y1169238D01*
X936858D01*
Y1163142D01*
X930762D01*
X943730Y1131110D02*
Y1141270D01*
X953890D01*
Y1131110D01*
X943730D01*
X945762Y1133142D02*
Y1139238D01*
X951858D01*
Y1133142D01*
X945762D01*
X928730Y1101110D02*
Y1111270D01*
X938890D01*
Y1101110D01*
X928730D01*
X930762Y1103142D02*
Y1109238D01*
X936858D01*
Y1103142D01*
X930762D01*
X943730Y1071110D02*
Y1081270D01*
X953890D01*
Y1071110D01*
X943730D01*
X945762Y1073142D02*
Y1079238D01*
X951858D01*
Y1073142D01*
X945762D01*
X928730Y1041110D02*
Y1051270D01*
X938890D01*
Y1041110D01*
X928730D01*
X930762Y1043142D02*
Y1049238D01*
X936858D01*
Y1043142D01*
X930762D01*
X943730Y1011110D02*
Y1021270D01*
X953890D01*
Y1011110D01*
X943730D01*
X945762Y1013142D02*
Y1019238D01*
X951858D01*
Y1013142D01*
X945762D01*
X928730Y981110D02*
Y991270D01*
X938890D01*
Y981110D01*
X928730D01*
X930762Y983142D02*
Y989238D01*
X936858D01*
Y983142D01*
X930762D01*
X943730Y951110D02*
Y961270D01*
X953890D01*
Y951110D01*
X943730D01*
X945762Y953142D02*
Y959238D01*
X951858D01*
Y953142D01*
X945762D01*
X928730Y921110D02*
Y931270D01*
X938890D01*
Y921110D01*
X928730D01*
X930762Y923142D02*
Y929238D01*
X936858D01*
Y923142D01*
X930762D01*
X943730Y891110D02*
Y901270D01*
X953890D01*
Y891110D01*
X943730D01*
X945762Y893142D02*
Y899238D01*
X951858D01*
Y893142D01*
X945762D01*
X928730Y861110D02*
Y871270D01*
X938890D01*
Y861110D01*
X928730D01*
X930762Y863142D02*
Y869238D01*
X936858D01*
Y863142D01*
X930762D01*
X943730Y831110D02*
Y841270D01*
X953890D01*
Y831110D01*
X943730D01*
X945762Y833142D02*
Y839238D01*
X951858D01*
Y833142D01*
X945762D01*
X943730Y771110D02*
Y781270D01*
X953890D01*
Y771110D01*
X943730D01*
X945762Y773142D02*
Y779238D01*
X951858D01*
Y773142D01*
X945762D01*
X943730Y711110D02*
Y721270D01*
X953890D01*
Y711110D01*
X943730D01*
X945762Y713142D02*
Y719238D01*
X951858D01*
Y713142D01*
X945762D01*
X928730Y681110D02*
Y691270D01*
X938890D01*
Y681110D01*
X928730D01*
X930762Y683142D02*
Y689238D01*
X936858D01*
Y683142D01*
X930762D01*
X943730Y651110D02*
Y661270D01*
X953890D01*
Y651110D01*
X943730D01*
X945762Y653142D02*
Y659238D01*
X951858D01*
Y653142D01*
X945762D01*
X943730Y591110D02*
Y601270D01*
X953890D01*
Y591110D01*
X943730D01*
X945762Y593142D02*
Y599238D01*
X951858D01*
Y593142D01*
X945762D01*
X928730Y501110D02*
Y511270D01*
X938890D01*
Y501110D01*
X928730D01*
X930762Y503142D02*
Y509238D01*
X936858D01*
Y503142D01*
X930762D01*
X1324610Y594360D02*
X1329690Y599440D01*
X1334770Y594360D01*
X1329690Y589280D01*
X1324610Y594360D01*
X1375379Y594324D02*
X1380459Y599404D01*
X1385538Y594324D01*
X1380459Y589244D01*
X1375379Y594324D01*
X1303042Y767307D02*
X1308122Y772387D01*
X1313202Y767307D01*
X1308122Y762227D01*
X1303042Y767307D01*
X1308399Y762732D02*
X1313479Y767812D01*
X1318559Y762732D01*
X1313479Y757652D01*
X1308399Y762732D01*
X1324272Y627858D02*
X1329352Y632938D01*
X1334432Y627858D01*
X1329352Y622778D01*
X1324272Y627858D01*
X1324610Y617220D02*
X1329690Y622300D01*
X1334770Y617220D01*
X1329690Y612140D01*
X1324610Y617220D01*
X1351280Y798830D02*
X1356360Y803910D01*
X1361440Y798830D01*
X1356360Y793750D01*
X1351280Y798830D01*
Y789940D02*
X1356360Y795020D01*
X1361440Y789940D01*
X1356360Y784860D01*
X1351280Y789940D01*
X1428750Y836930D02*
X1433830Y842010D01*
X1438910Y836930D01*
X1433830Y831850D01*
X1428750Y836930D01*
Y844550D02*
X1433830Y849630D01*
X1438910Y844550D01*
X1433830Y839470D01*
X1428750Y844550D01*
X1402080Y878840D02*
X1407160Y883920D01*
X1412240Y878840D01*
X1407160Y873760D01*
X1402080Y878840D01*
X1369060Y864870D02*
X1374140Y869950D01*
X1379220Y864870D01*
X1374140Y859790D01*
X1369060Y864870D01*
X1361440Y857250D02*
X1366520Y862330D01*
X1371600Y857250D01*
X1366520Y852170D01*
X1361440Y857250D01*
X1353820D02*
X1358900Y862330D01*
X1363980Y857250D01*
X1358900Y852170D01*
X1353820Y857250D01*
X1361440Y864870D02*
X1366520Y869950D01*
X1371600Y864870D01*
X1366520Y859790D01*
X1361440Y864870D01*
X1353820D02*
X1358900Y869950D01*
X1363980Y864870D01*
X1358900Y859790D01*
X1353820Y864870D01*
X1295784Y688023D02*
X1300864Y693103D01*
X1305944Y688023D01*
X1300864Y682943D01*
X1295784Y688023D01*
X1294130Y699770D02*
X1299210Y704850D01*
X1304290Y699770D01*
X1299210Y694690D01*
X1294130Y699770D01*
X1342390Y645160D02*
X1347470Y650240D01*
X1352550Y645160D01*
X1347470Y640080D01*
X1342390Y645160D01*
X1383030Y673100D02*
X1388110Y678180D01*
X1393190Y673100D01*
X1388110Y668020D01*
X1383030Y673100D01*
X1264920Y871220D02*
X1270000Y876300D01*
X1275080Y871220D01*
X1270000Y866140D01*
X1264920Y871220D01*
X1256030D02*
X1261110Y876300D01*
X1266190Y871220D01*
X1261110Y866140D01*
X1256030Y871220D01*
X1027430Y966470D02*
X1032510Y971550D01*
X1037590Y966470D01*
X1032510Y961390D01*
X1027430Y966470D01*
Y974090D02*
X1032510Y979170D01*
X1037590Y974090D01*
X1032510Y969010D01*
X1027430Y974090D01*
X1028700Y946150D02*
X1033780Y951230D01*
X1038860Y946150D01*
X1033780Y941070D01*
X1028700Y946150D01*
X1103630Y1107440D02*
X1108710Y1112520D01*
X1113790Y1107440D01*
X1108710Y1102360D01*
X1103630Y1107440D01*
X1226720Y1085970D02*
X1229260Y1088510D01*
X1231800D01*
X1229260Y1091050D01*
X1231800Y1093590D01*
X1229260D01*
X1226720Y1096130D01*
X1224180Y1093590D01*
X1221640D01*
X1224180Y1091050D01*
X1221640Y1088510D01*
X1224180D01*
X1226720Y1085970D01*
X1241960D02*
X1244500Y1088510D01*
X1247040D01*
X1244500Y1091050D01*
X1247040Y1093590D01*
X1244500D01*
X1241960Y1096130D01*
X1239420Y1093590D01*
X1236880D01*
X1239420Y1091050D01*
X1236880Y1088510D01*
X1239420D01*
X1241960Y1085970D01*
X1257200D02*
X1259740Y1088510D01*
X1262280D01*
X1259740Y1091050D01*
X1262280Y1093590D01*
X1259740D01*
X1257200Y1096130D01*
X1254660Y1093590D01*
X1252120D01*
X1254660Y1091050D01*
X1252120Y1088510D01*
X1254660D01*
X1257200Y1085970D01*
X1226720Y1074540D02*
X1229260Y1077080D01*
X1231800D01*
X1229260Y1079620D01*
X1231800Y1082160D01*
X1229260D01*
X1226720Y1084700D01*
X1224180Y1082160D01*
X1221640D01*
X1224180Y1079620D01*
X1221640Y1077080D01*
X1224180D01*
X1226720Y1074540D01*
X1241960D02*
X1244500Y1077080D01*
X1247040D01*
X1244500Y1079620D01*
X1247040Y1082160D01*
X1244500D01*
X1241960Y1084700D01*
X1239420Y1082160D01*
X1236880D01*
X1239420Y1079620D01*
X1236880Y1077080D01*
X1239420D01*
X1241960Y1074540D01*
X1257200D02*
X1259740Y1077080D01*
X1262280D01*
X1259740Y1079620D01*
X1262280Y1082160D01*
X1259740D01*
X1257200Y1084700D01*
X1254660Y1082160D01*
X1252120D01*
X1254660Y1079620D01*
X1252120Y1077080D01*
X1254660D01*
X1257200Y1074540D01*
X1226720Y1064380D02*
X1229260Y1066920D01*
X1231800D01*
X1229260Y1069460D01*
X1231800Y1072000D01*
X1229260D01*
X1226720Y1074540D01*
X1224180Y1072000D01*
X1221640D01*
X1224180Y1069460D01*
X1221640Y1066920D01*
X1224180D01*
X1226720Y1064380D01*
X1241960D02*
X1244500Y1066920D01*
X1247040D01*
X1244500Y1069460D01*
X1247040Y1072000D01*
X1244500D01*
X1241960Y1074540D01*
X1239420Y1072000D01*
X1236880D01*
X1239420Y1069460D01*
X1236880Y1066920D01*
X1239420D01*
X1241960Y1064380D01*
X1257200D02*
X1259740Y1066920D01*
X1262280D01*
X1259740Y1069460D01*
X1262280Y1072000D01*
X1259740D01*
X1257200Y1074540D01*
X1254660Y1072000D01*
X1252120D01*
X1254660Y1069460D01*
X1252120Y1066920D01*
X1254660D01*
X1257200Y1064380D01*
X1226720Y1055490D02*
X1229260Y1058030D01*
X1231800D01*
X1229260Y1060570D01*
X1231800Y1063110D01*
X1229260D01*
X1226720Y1065650D01*
X1224180Y1063110D01*
X1221640D01*
X1224180Y1060570D01*
X1221640Y1058030D01*
X1224180D01*
X1226720Y1055490D01*
X1241960D02*
X1244500Y1058030D01*
X1247040D01*
X1244500Y1060570D01*
X1247040Y1063110D01*
X1244500D01*
X1241960Y1065650D01*
X1239420Y1063110D01*
X1236880D01*
X1239420Y1060570D01*
X1236880Y1058030D01*
X1239420D01*
X1241960Y1055490D01*
X1257200D02*
X1259740Y1058030D01*
X1262280D01*
X1259740Y1060570D01*
X1262280Y1063110D01*
X1259740D01*
X1257200Y1065650D01*
X1254660Y1063110D01*
X1252120D01*
X1254660Y1060570D01*
X1252120Y1058030D01*
X1254660D01*
X1257200Y1055490D01*
X1325880Y647700D02*
X1330960Y652780D01*
X1336040Y647700D01*
X1330960Y642620D01*
X1325880Y647700D01*
X1356614Y1112012D02*
X1361694Y1117092D01*
X1366774Y1112012D01*
X1361694Y1106932D01*
X1356614Y1112012D01*
X1308100Y646430D02*
X1313180Y651510D01*
X1318260Y646430D01*
X1313180Y641350D01*
X1308100Y646430D01*
X1351748Y568071D02*
X1356828Y573151D01*
X1361908Y568071D01*
X1356828Y562991D01*
X1351748Y568071D01*
X1224915Y619125D02*
X1229995Y624205D01*
X1235075Y619125D01*
X1229995Y614045D01*
X1224915Y619125D01*
X1276350Y782320D02*
X1281430Y787400D01*
X1286510Y782320D01*
X1281430Y777240D01*
X1276350Y782320D01*
X996950Y885190D02*
X1002030Y890270D01*
X1007110Y885190D01*
X1002030Y880110D01*
X996950Y885190D01*
X1002030Y833120D02*
X1007110Y838200D01*
X1012190Y833120D01*
X1007110Y828040D01*
X1002030Y833120D01*
X995680Y935990D02*
X1000760Y941070D01*
X1005840Y935990D01*
X1000760Y930910D01*
X995680Y935990D01*
X996950Y984250D02*
X1002030Y989330D01*
X1007110Y984250D01*
X1002030Y979170D01*
X996950Y984250D01*
X998220Y1036320D02*
X1003300Y1041400D01*
X1008380Y1036320D01*
X1003300Y1031240D01*
X998220Y1036320D01*
X1172826Y908431D02*
X1177906Y913511D01*
X1182986Y908431D01*
X1177906Y903351D01*
X1172826Y908431D01*
X1341120Y929640D02*
X1346200Y934720D01*
X1351280Y929640D01*
X1346200Y924560D01*
X1341120Y929640D01*
X1321170Y779410D02*
X1323710D01*
X1326250Y781950D01*
X1328790Y779410D01*
X1331330D01*
Y781950D01*
X1328790Y784490D01*
X1331330Y787030D01*
Y789570D01*
X1328790D01*
X1326250Y787030D01*
X1323710Y789570D01*
X1321170D01*
Y787030D01*
X1323710Y784490D01*
X1321170Y781950D01*
Y779410D01*
X1365250Y767080D02*
X1367790D01*
X1370330Y769620D01*
X1372870Y767080D01*
X1375410D01*
Y769620D01*
X1372870Y772160D01*
X1375410Y774700D01*
Y777240D01*
X1372870D01*
X1370330Y774700D01*
X1367790Y777240D01*
X1365250D01*
Y774700D01*
X1367790Y772160D01*
X1365250Y769620D01*
Y767080D01*
X1292860Y708660D02*
X1295400D01*
X1297940Y711200D01*
X1300480Y708660D01*
X1303020D01*
Y711200D01*
X1300480Y713740D01*
X1303020Y716280D01*
Y718820D01*
X1300480D01*
X1297940Y716280D01*
X1295400Y718820D01*
X1292860D01*
Y716280D01*
X1295400Y713740D01*
X1292860Y711200D01*
Y708660D01*
X1025144Y828802D02*
X1027684D01*
X1030224Y831342D01*
X1032764Y828802D01*
X1035304D01*
Y831342D01*
X1032764Y833882D01*
X1035304Y836422D01*
Y838962D01*
X1032764D01*
X1030224Y836422D01*
X1027684Y838962D01*
X1025144D01*
Y836422D01*
X1027684Y833882D01*
X1025144Y831342D01*
Y828802D01*
X1211707Y814197D02*
X1214247D01*
X1216787Y816737D01*
X1219327Y814197D01*
X1221867D01*
Y816737D01*
X1219327Y819277D01*
X1221867Y821817D01*
Y824357D01*
X1219327D01*
X1216787Y821817D01*
X1214247Y824357D01*
X1211707D01*
Y821817D01*
X1214247Y819277D01*
X1211707Y816737D01*
Y814197D01*
X1397762Y942340D02*
X1402842Y947420D01*
X1407922Y942340D01*
X1402842Y937260D01*
X1397762Y942340D01*
X1291590Y918210D02*
X1296670Y923290D01*
X1301750Y918210D01*
X1296670Y913130D01*
X1291590Y918210D01*
X1396111Y910971D02*
X1401191Y916051D01*
X1406271Y910971D01*
X1401191Y905891D01*
X1396111Y910971D01*
X1181474Y922020D02*
X1184014D01*
X1186554Y924560D01*
X1189094Y922020D01*
X1191634D01*
Y924560D01*
X1189094Y927100D01*
X1191634Y929640D01*
Y932180D01*
X1189094D01*
X1186554Y929640D01*
X1184014Y932180D01*
X1181474D01*
Y929640D01*
X1184014Y927100D01*
X1181474Y924560D01*
Y922020D01*
X1287780Y986790D02*
X1292860Y991870D01*
X1297940Y986790D01*
X1292860Y981710D01*
X1287780Y986790D01*
X1304290Y1087120D02*
X1309370Y1092200D01*
X1314450Y1087120D01*
X1309370Y1082040D01*
X1304290Y1087120D01*
X1135888Y1010666D02*
X1140968Y1015746D01*
X1146048Y1010666D01*
X1140968Y1005586D01*
X1135888Y1010666D01*
Y983742D02*
X1140968Y988822D01*
X1146048Y983742D01*
X1140968Y978662D01*
X1135888Y983742D01*
X997458Y1087628D02*
X1002538Y1092708D01*
X1007618Y1087628D01*
X1002538Y1082548D01*
X997458Y1087628D01*
X996740Y1138130D02*
X1001820Y1143210D01*
X1006900Y1138130D01*
X1001820Y1133050D01*
X996740Y1138130D01*
X996950Y1188720D02*
X1002030Y1193800D01*
X1007110Y1188720D01*
X1002030Y1183640D01*
X996950Y1188720D01*
X1135237Y997536D02*
X1140317Y1002616D01*
X1145397Y997536D01*
X1140317Y992456D01*
X1135237Y997536D01*
X1133663Y1046988D02*
X1138743Y1052068D01*
X1143823Y1046988D01*
X1138743Y1041908D01*
X1133663Y1046988D01*
X1135380Y1061720D02*
X1140460Y1066800D01*
X1145540Y1061720D01*
X1140460Y1056640D01*
X1135380Y1061720D01*
X1134110Y1074420D02*
X1139190Y1079500D01*
X1144270Y1074420D01*
X1139190Y1069340D01*
X1134110Y1074420D01*
Y1087120D02*
X1139190Y1092200D01*
X1144270Y1087120D01*
X1139190Y1082040D01*
X1134110Y1087120D01*
X1125728Y922020D02*
X1128268D01*
X1130808Y924560D01*
X1133348Y922020D01*
X1135888D01*
Y924560D01*
X1133348Y927100D01*
X1135888Y929640D01*
Y932180D01*
X1133348D01*
X1130808Y929640D01*
X1128268Y932180D01*
X1125728D01*
Y929640D01*
X1128268Y927100D01*
X1125728Y924560D01*
Y922020D01*
X1333246Y973074D02*
X1338326Y978154D01*
X1343406Y973074D01*
X1338326Y967994D01*
X1333246Y973074D01*
X1367790Y1099820D02*
X1372870Y1104900D01*
X1377950Y1099820D01*
X1372870Y1094740D01*
X1367790Y1099820D01*
X1174750Y1125220D02*
X1179830Y1130300D01*
X1184910Y1125220D01*
X1179830Y1120140D01*
X1174750Y1125220D01*
X1314450D02*
X1319530Y1130300D01*
X1324610Y1125220D01*
X1319530Y1120140D01*
X1314450Y1125220D01*
D90*
X1313401Y502850D02*
G03*
X1313401Y502850I-5080J0D01*
G01*
X1399801D02*
G03*
X1399801Y502850I-5080J0D01*
G01*
M02*
