G04*
G04 #@! TF.GenerationSoftware,Altium Limited,Altium Designer,25.8.1 (18)*
G04*
G04 Layer_Color=8421504*
%FSLAX44Y44*%
%MOMM*%
G71*
G04*
G04 #@! TF.SameCoordinates,B0FFB41F-91FD-404A-B40E-8C3C6E9A6B17*
G04*
G04*
G04 #@! TF.FilePolarity,Positive*
G04*
G01*
G75*
%ADD17R,1.5500X2.2000*%
G04:AMPARAMS|DCode=18|XSize=1.21mm|YSize=0.59mm|CornerRadius=0.0738mm|HoleSize=0mm|Usage=FLASHONLY|Rotation=0.000|XOffset=0mm|YOffset=0mm|HoleType=Round|Shape=RoundedRectangle|*
%AMROUNDEDRECTD18*
21,1,1.2100,0.4425,0,0,0.0*
21,1,1.0625,0.5900,0,0,0.0*
1,1,0.1475,0.5313,-0.2213*
1,1,0.1475,-0.5313,-0.2213*
1,1,0.1475,-0.5313,0.2213*
1,1,0.1475,0.5313,0.2213*
%
%ADD18ROUNDEDRECTD18*%
%ADD19R,0.5900X1.1500*%
%ADD20R,0.2980X1.1500*%
%ADD21R,0.9500X1.0000*%
%ADD22R,0.8000X0.8000*%
%ADD23R,3.2500X2.1500*%
%ADD24R,0.9500X2.1500*%
%ADD25R,1.0000X0.9000*%
%ADD26R,2.4500X2.3500*%
%ADD27R,1.8000X2.2500*%
%ADD28R,1.0000X0.9500*%
%ADD29R,0.9000X1.0000*%
%ADD30R,1.5500X0.6000*%
%ADD31R,0.6000X1.0000*%
%ADD32R,2.0000X0.9000*%
%ADD33R,4.2691X4.2691*%
%ADD34R,0.9000X2.0000*%
G04:AMPARAMS|DCode=35|XSize=1.31mm|YSize=0.62mm|CornerRadius=0.0775mm|HoleSize=0mm|Usage=FLASHONLY|Rotation=90.000|XOffset=0mm|YOffset=0mm|HoleType=Round|Shape=RoundedRectangle|*
%AMROUNDEDRECTD35*
21,1,1.3100,0.4650,0,0,90.0*
21,1,1.1550,0.6200,0,0,90.0*
1,1,0.1550,0.2325,0.5775*
1,1,0.1550,0.2325,-0.5775*
1,1,0.1550,-0.2325,-0.5775*
1,1,0.1550,-0.2325,0.5775*
%
%ADD35ROUNDEDRECTD35*%
%ADD36R,2.2000X1.5500*%
%ADD37R,1.8000X1.1500*%
%ADD38R,1.0000X0.6000*%
%ADD39R,2.7000X3.6000*%
D17*
X1244600Y719730D02*
D03*
Y760730D02*
D03*
X1310640Y627205D02*
D03*
Y586205D02*
D03*
X1094740Y634820D02*
D03*
X1398270Y627205D02*
D03*
Y586205D02*
D03*
X1094740Y675820D02*
D03*
D18*
X1367640Y624761D02*
D03*
Y634261D02*
D03*
Y615261D02*
D03*
X1342540D02*
D03*
Y634261D02*
D03*
Y624761D02*
D03*
D19*
X1375521Y548600D02*
D03*
X1327521D02*
D03*
X1319521D02*
D03*
X1383521D02*
D03*
D20*
X1359021D02*
D03*
X1349021D02*
D03*
X1334021D02*
D03*
X1369021D02*
D03*
X1364021D02*
D03*
X1339021D02*
D03*
X1344021D02*
D03*
X1354021D02*
D03*
D21*
X1062100Y944880D02*
D03*
X1046100D02*
D03*
X1082040Y1102360D02*
D03*
X1066040D02*
D03*
X1123570Y619760D02*
D03*
X1286890Y763270D02*
D03*
X1139570Y619760D02*
D03*
X1270890Y763270D02*
D03*
D22*
X1394460Y972956D02*
D03*
Y989456D02*
D03*
X1126490Y893200D02*
D03*
Y909700D02*
D03*
X1097280Y793110D02*
D03*
Y776610D02*
D03*
X1394460Y792860D02*
D03*
Y776360D02*
D03*
X1375410Y893200D02*
D03*
Y909700D02*
D03*
D23*
X1071880Y1032300D02*
D03*
D24*
Y974300D02*
D03*
X1048880D02*
D03*
X1094880D02*
D03*
D25*
X1341120Y596010D02*
D03*
X1369060D02*
D03*
X1357630Y893700D02*
D03*
X1413510Y973456D02*
D03*
X1436370Y878460D02*
D03*
X1120140Y842900D02*
D03*
X1144270Y893700D02*
D03*
X1330960Y656210D02*
D03*
Y672210D02*
D03*
X1137920Y842900D02*
D03*
Y858900D02*
D03*
X1120140D02*
D03*
X1144270Y909700D02*
D03*
X1079500Y776860D02*
D03*
Y792860D02*
D03*
X1369060Y580010D02*
D03*
X1341120D02*
D03*
X1239020Y915660D02*
D03*
Y899660D02*
D03*
X1217930Y899160D02*
D03*
Y915160D02*
D03*
X1410970Y792860D02*
D03*
Y776860D02*
D03*
X1436370Y894460D02*
D03*
X1357630Y909700D02*
D03*
X1413510Y989456D02*
D03*
X1314450Y656210D02*
D03*
Y672210D02*
D03*
D26*
X1266444Y625336D02*
D03*
X1250950Y850150D02*
D03*
X1266444Y687336D02*
D03*
X1250950Y788150D02*
D03*
D27*
X1057380Y1071880D02*
D03*
X1086380D02*
D03*
D28*
X1108710Y1121030D02*
D03*
X1400810Y672210D02*
D03*
X1200150Y834770D02*
D03*
X1347470Y656210D02*
D03*
X1285240Y727330D02*
D03*
X1347470Y672210D02*
D03*
X1400810Y656210D02*
D03*
X1108710Y1137030D02*
D03*
X1285240Y743330D02*
D03*
X1200150Y818770D02*
D03*
D29*
X1167130Y619760D02*
D03*
X1183130D02*
D03*
X1199770D02*
D03*
X1215770D02*
D03*
X1400430Y896620D02*
D03*
X1416430D02*
D03*
X1308990Y861060D02*
D03*
X1324990D02*
D03*
X1323720Y798830D02*
D03*
X1307720D02*
D03*
D30*
X1138860Y641350D02*
D03*
Y679450D02*
D03*
Y654050D02*
D03*
X1192860Y679450D02*
D03*
Y666750D02*
D03*
Y641350D02*
D03*
Y654050D02*
D03*
X1138860Y666750D02*
D03*
D31*
X1073810Y861200D02*
D03*
X1398930Y876370D02*
D03*
X1408430Y853370D02*
D03*
X1417930Y876370D02*
D03*
X1092810Y861200D02*
D03*
X1083310Y838200D02*
D03*
D32*
X1159310Y1150620D02*
D03*
X1337310D02*
D03*
Y1112520D02*
D03*
Y1010920D02*
D03*
Y1023620D02*
D03*
Y1074420D02*
D03*
Y1061720D02*
D03*
Y1049020D02*
D03*
Y1036320D02*
D03*
Y1137920D02*
D03*
X1159310Y1036320D02*
D03*
Y1125220D02*
D03*
Y1112520D02*
D03*
Y1099820D02*
D03*
X1337310Y1125220D02*
D03*
Y1087120D02*
D03*
X1159310Y1074420D02*
D03*
Y1087120D02*
D03*
Y998220D02*
D03*
Y1049020D02*
D03*
Y1061720D02*
D03*
Y1137920D02*
D03*
X1337310Y1099820D02*
D03*
Y998220D02*
D03*
Y985520D02*
D03*
X1159310D02*
D03*
Y1010920D02*
D03*
Y1023620D02*
D03*
D33*
X1241560Y1076720D02*
D03*
D34*
X1191210Y970520D02*
D03*
X1305510D02*
D03*
X1292810D02*
D03*
X1280110D02*
D03*
X1267410D02*
D03*
X1254710D02*
D03*
X1242010D02*
D03*
X1229310D02*
D03*
X1216610D02*
D03*
X1203910D02*
D03*
D35*
X1311910Y693860D02*
D03*
X1350010D02*
D03*
X1311910Y748860D02*
D03*
X1375410Y693860D02*
D03*
X1362710D02*
D03*
X1337310Y748860D02*
D03*
X1324610D02*
D03*
X1400810Y693860D02*
D03*
X1388110Y748860D02*
D03*
Y693860D02*
D03*
X1400810Y748860D02*
D03*
X1375410D02*
D03*
X1362710D02*
D03*
X1337310Y693860D02*
D03*
X1350010Y748860D02*
D03*
X1324610Y693860D02*
D03*
D36*
X1118690Y819150D02*
D03*
X1159690D02*
D03*
X1409880Y821690D02*
D03*
X1368880D02*
D03*
D37*
X1216660Y679980D02*
D03*
Y650980D02*
D03*
D38*
X1306900Y822350D02*
D03*
X1283900Y831850D02*
D03*
X1306900Y841350D02*
D03*
X1346270Y831850D02*
D03*
X1323270Y822350D02*
D03*
Y841350D02*
D03*
D39*
X1126900Y746760D02*
D03*
X1209900D02*
D03*
M02*
