G04*
G04 #@! TF.GenerationSoftware,Altium Limited,Altium Designer,25.8.1 (18)*
G04*
G04 Layer_Color=16711935*
%FSLAX44Y44*%
%MOMM*%
G71*
G04*
G04 #@! TF.SameCoordinates,B0FFB41F-91FD-404A-B40E-8C3C6E9A6B17*
G04*
G04*
G04 #@! TF.FilePolarity,Negative*
G04*
G01*
G75*
%ADD63O,1.1270X2.3270*%
%ADD64O,1.1270X1.9270*%
%ADD65R,1.7112X1.7112*%
%ADD66C,1.7112*%
%ADD67C,3.2032*%
%ADD68C,2.2032*%
%ADD69C,2.4032*%
%ADD70C,2.1532*%
%ADD71C,0.7032*%
D63*
X1308321Y502850D02*
D03*
X1394721D02*
D03*
D64*
X1308321Y542850D02*
D03*
X1394721D02*
D03*
D65*
X1287780Y946720D02*
D03*
D66*
X1262380D02*
D03*
X1211580D02*
D03*
X1236980D02*
D03*
D67*
X1139680Y1171720D02*
D03*
X1359680D02*
D03*
D68*
X1131570Y548640D02*
D03*
X1040130D02*
D03*
X989330D02*
D03*
X938530D02*
D03*
X1551940D02*
D03*
X1501140D02*
D03*
X1450340D02*
D03*
X1182370D02*
D03*
X1233170D02*
D03*
X1511300Y840740D02*
D03*
Y891540D02*
D03*
Y942340D02*
D03*
Y993140D02*
D03*
Y1043940D02*
D03*
Y1094740D02*
D03*
Y1145540D02*
D03*
Y1196340D02*
D03*
X972148Y833330D02*
D03*
Y884130D02*
D03*
Y934930D02*
D03*
Y985730D02*
D03*
Y1036530D02*
D03*
Y1087330D02*
D03*
Y1138130D02*
D03*
Y1188930D02*
D03*
D69*
X927689Y642565D02*
D03*
X1047689D02*
D03*
X987689Y784565D02*
D03*
X1500205Y783295D02*
D03*
X1560205Y641295D02*
D03*
X1440205D02*
D03*
D70*
X927689Y764565D02*
D03*
X1047689D02*
D03*
X1440205Y763295D02*
D03*
X1560205D02*
D03*
D71*
X1226720Y1091050D02*
D03*
X1241960D02*
D03*
X1257200D02*
D03*
X1226720Y1079620D02*
D03*
X1241960D02*
D03*
X1257200D02*
D03*
X1226720Y1069460D02*
D03*
X1241960D02*
D03*
X1257200D02*
D03*
X1226720Y1060570D02*
D03*
X1241960D02*
D03*
X1257200D02*
D03*
M02*
